r<svg xmlns="http://www.w3.org/2000/svg" viewBox="0 0 153.96 151.84"><title>Fichier 73</title><g id="Calque_2" data-name="Calque 2"><g id="Calque_1-2" data-name="Calque 1"><path class="cls-1" d="M143.94,71.48l-20.55-8.87L133,40.4a16.6,16.6,0,0,0-8.66-21.8l-40-17.25A16.62,16.62,0,0,0,62.55,10L53,32.23,32.43,23.37A16.61,16.61,0,0,0,10.63,32L0,56.67V98.54L25.86,38.6,46.4,47.46,42,57.6a8.29,8.29,0,0,0,15.23,6.57L61.62,54l40,17.24L97.22,81.41A8.29,8.29,0,0,0,112.45,88l4.37-10.14,20.56,8.87-28.11,65.13h18.07L152.6,93.27A16.59,16.59,0,0,0,143.94,71.48ZM108.17,56l-40-17.24,9.59-22.22,40,17.25Z"/></g></g></svg>