<svg id="Groupe_133" data-name="Groupe 133" xmlns="http://www.w3.org/2000/svg" width="41.86" height="43.066" viewBox="0 0 41.86 43.066">
  <path id="Tracé_2611" data-name="Tracé 2611" d="M155.723,334.28c.564,0,1.127-.006,1.691,0a1.092,1.092,0,0,0,1.233-.878c.108-.342.189-.693.284-1.039.041-.15.08-.3.129-.448a1.468,1.468,0,0,1,2.015-1.171,31.276,31.276,0,0,0,3.445.576,19.233,19.233,0,0,0,6.747-.36,2.807,2.807,0,0,1,.371-.075,1.044,1.044,0,0,1,1.321.936c.015.066.03.133.044.2a2.559,2.559,0,0,0,2.607,2.289,13.678,13.678,0,0,0,2.936-.159c.611-.093.871-.339.926-.946a9.379,9.379,0,0,0-.064-3.1,3.21,3.21,0,0,1,1.133-3.4,10.71,10.71,0,0,1,1.76-1.19,26.735,26.735,0,0,0,4.327-2.9,9.037,9.037,0,0,0,2.788-3.639,8.887,8.887,0,0,0,.325-4.852,1.436,1.436,0,0,0-1.405-1.216c-.649-.053-1.3-.109-1.946-.173a1.737,1.737,0,0,1-1.469-.962,7.3,7.3,0,0,0-1.805-2.3.86.86,0,0,1-.252-1.175c.2-.431.442-.842.668-1.261a4.953,4.953,0,0,0,.693-2.291,1.207,1.207,0,0,0-1.268-1.407,7.322,7.322,0,0,0-3.758.738,15.591,15.591,0,0,0-1.763.965,1.151,1.151,0,0,1-1.234.049,20.033,20.033,0,0,0-10.6-2.053,22.169,22.169,0,0,0-9.128,2.461A17.594,17.594,0,0,0,150,311.164a10.953,10.953,0,0,0-1.9,6.987,10.81,10.81,0,0,0,2.591,6.4,7.523,7.523,0,0,1,1.715,4.1q.29,2.387.583,4.774a.839.839,0,0,0,.988.859c.292-.005.583-.022.875-.027s.583,0,.875,0Zm19.56-24.39a.712.712,0,0,0,.345-.248c.141-.209.3-.41.428-.625a8.43,8.43,0,0,1,5-3.776q.419-.122.847-.21a.388.388,0,0,1,.428.181c.1.148.027.277-.042.409-.125.241-.251.483-.37.727a18.828,18.828,0,0,1-1.087,2.06c-.074.114-.152.226-.222.343a.72.72,0,0,0,.217,1.128c.047.035.094.07.143.1a6.709,6.709,0,0,1,2.524,2.8,2.666,2.666,0,0,0,2.153,1.552c.616.085,1.234.153,1.853.216.594.06.835.322.806.91a13.674,13.674,0,0,1-.192,1.65,5.761,5.761,0,0,1-2.211,3.81c-.459.344-.9.71-1.36,1.054a55.813,55.813,0,0,1-5.458,3.527,2.2,2.2,0,0,0-1.166,2.384,25.69,25.69,0,0,1-.026,3.817.925.925,0,0,1-.036.171.666.666,0,0,1-.643.608,6.334,6.334,0,0,1-1.281.015,1.272,1.272,0,0,1-1.194-.83c-.082-.186-.157-.376-.234-.565a10.176,10.176,0,0,0-.648-1.432,1.137,1.137,0,0,0-1.063-.591,6.25,6.25,0,0,0-.956.1,30.959,30.959,0,0,1-4.165.5,27.178,27.178,0,0,1-8.19-.965c-.667-.181-.9-.055-1.128.591-.3.852-.608,1.7-.987,2.522a1,1,0,0,1-1.154.683c-.349-.027-.7-.044-1.048-.044a.549.549,0,0,1-.619-.526c-.057-.335-.091-.674-.137-1.011-.172-1.271-.4-2.537-.483-3.816a4.048,4.048,0,0,0-1.079-2.576,12.777,12.777,0,0,1-1.794-2.473,8.978,8.978,0,0,1-.615-8.152,12.721,12.721,0,0,1,3.982-5.055,21.169,21.169,0,0,1,15.483-3.984,32.385,32.385,0,0,1,4.573,1.257c.712.221.806.356.807,1.107C175.285,308.1,175.284,308.975,175.284,309.89Z" transform="translate(-148.071 -291.267)"/>
  <path id="Tracé_2612" data-name="Tracé 2612" d="M223.34,256.418a6.6,6.6,0,0,1,6.781,6.762,7.7,7.7,0,0,1-.2,1.412c-.117.562.032.817.576.99a4.4,4.4,0,0,0,.533.146.375.375,0,0,0,.478-.313,8.578,8.578,0,0,0-1.486-7.613,8.35,8.35,0,0,0-12.309-.622,8.147,8.147,0,0,0-2.318,6.463,11.605,11.605,0,0,0,.372,2.12c.14.558.431.717.971.54a2.388,2.388,0,0,0,.322-.134.686.686,0,0,0,.418-.907c-.113-.452-.3-.881-.378-1.344a6.059,6.059,0,0,1,1.566-5.172,6.565,6.565,0,0,1,3.911-2.253C222.876,256.442,223.179,256.433,223.34,256.418Z" transform="translate(-206.305 -254.769)"/>
  <path id="Tracé_2613" data-name="Tracé 2613" d="M188.963,342.719a1.42,1.42,0,0,0-1.608-1.505,1.512,1.512,0,1,0,.078,3.011A1.443,1.443,0,0,0,188.963,342.719Z" transform="translate(-156.264 -320.196)"/>
</svg>
