<svg xmlns="http://www.w3.org/2000/svg" viewBox="0 0 55.28 53.81">
    <title>Fichier 45</title>
    <g id="Calque_2" data-name="Calque 2">
        <g id="Calque_1-2" data-name="Calque 1">
            <path d="M0,20.61c0-4.05,0-8.1,0-12.15a2.07,2.07,0,0,1,1.12-2,2.08,2.08,0,0,1,2.31.22A12.21,12.21,0,0,0,8.62,8.84a13.8,13.8,0,0,0,4.92-.17A34.82,34.82,0,0,0,21,6.07c2.52-1.13,5-2.36,7.52-3.44a35.48,35.48,0,0,1,7-2.26A16.56,16.56,0,0,1,48.73,3a2.26,2.26,0,0,1,1.05,2c0,4.55,0,9.1,0,13.65a.49.49,0,0,0,.4.57,14.83,14.83,0,0,1,4.28,2.19,1.88,1.88,0,0,1,.83,1.61V46a1.85,1.85,0,0,1-1,1.73,1.88,1.88,0,0,1-2.06-.13,12.59,12.59,0,0,0-3.87-1.86,12.46,12.46,0,0,0-5.6-.09,33,33,0,0,0-7.15,2.49c-2.4,1.08-4.76,2.26-7.19,3.28a31.79,31.79,0,0,1-6.45,2A15.38,15.38,0,0,1,9.7,50.89a2,2,0,0,1-.87-1.68q0-3.59,0-7.18c0-.24.09-.27.3-.25a16.3,16.3,0,0,0,3.35-.05c.23,0,.27,0,.27.25,0,2,0,4,0,6a.41.41,0,0,0,.23.42,11.23,11.23,0,0,0,7,1.48A23.34,23.34,0,0,0,26.6,48c2.57-1,5-2.31,7.58-3.44a38.69,38.69,0,0,1,7-2.49,16.64,16.64,0,0,1,8.41,0,11.66,11.66,0,0,1,1.54.53c.27.12.28,0,.28-.2,0-1.58,0-3.16,0-4.74V24.36a.41.41,0,0,0-.25-.45c-.37-.17-.74-.37-1.1-.57s-.27,0-.27.18c0,1.95,0,3.9,0,5.85a2.15,2.15,0,0,1-.72,1.72,2.09,2.09,0,0,1-2.61.11,14.09,14.09,0,0,0-3.19-1.68,12.32,12.32,0,0,0-5.9-.56,28.1,28.1,0,0,0-7.65,2.38c-2.52,1.12-5,2.3-7.53,3.43a37.31,37.31,0,0,1-7.34,2.55A17.61,17.61,0,0,1,6,37.19a17,17,0,0,1-5.09-2.5A2.06,2.06,0,0,1,0,32.91C0,28.81,0,24.71,0,20.61Zm45.59-4.68V6.21c0-.14,0-.26-.15-.36a12,12,0,0,0-4.71-1.62,15.44,15.44,0,0,0-5.66.48,40.54,40.54,0,0,0-6.49,2.43c-2.67,1.2-5.28,2.52-8,3.62a29.94,29.94,0,0,1-8,2.25,16.28,16.28,0,0,1-8.14-1.07c-.19-.08-.25-.08-.25.16V31.65a.34.34,0,0,0,.19.34,13.15,13.15,0,0,0,2.54,1.14,13.44,13.44,0,0,0,7.12.14,35.53,35.53,0,0,0,6.69-2.38c2.48-1.1,4.91-2.32,7.41-3.39a32.77,32.77,0,0,1,8.75-2.65,16.38,16.38,0,0,1,8.4,1c.31.12.31.12.31-.22Z"/>
            <path d="M33.69,33.83a1.34,1.34,0,0,1-.78,1.08c-.68.27-1.33.61-2,.92a.3.3,0,0,0-.22.33c0,.37,0,.73,0,1.1.13,0,.21,0,.3-.09L33.42,36c.25-.12.32-.07.27.19a1.28,1.28,0,0,1-.78,1.15c-.67.26-1.31.61-2,.9a.26.26,0,0,0-.17.33,5.45,5.45,0,0,0,.31,1.25,1.08,1.08,0,0,0,1.66.63,3.51,3.51,0,0,0,1.75-1.77c.24-.55.46-1.11.7-1.66a1.37,1.37,0,0,1,1-.85.58.58,0,0,1,.79.55,2.21,2.21,0,0,1-.14,1.14,7.63,7.63,0,0,1-5,4.66,2.4,2.4,0,0,1-3.13-1.7,8.09,8.09,0,0,1-.29-1.4l-.95.39c-.25.1-.33.06-.28-.2.1-.48.22-1,.8-1.11a.44.44,0,0,0,.38-.54c0-.32,0-.64,0-1l-.91.38c-.23.09-.3,0-.26-.2a1.15,1.15,0,0,1,.69-1c1.81-.8,3.62-1.62,5.51-2.24Z"/>
            <path d="M45.52,37.83a14,14,0,0,1,2.76.28.9.9,0,0,1,.78,1.08.91.91,0,0,1-1.1.67,15.22,15.22,0,0,0-7.34.51c-.69.2-1.38.44-2.06.68a.86.86,0,0,1-1-.21.84.84,0,0,1-.19-.94.87.87,0,0,1,.51-.5A22.34,22.34,0,0,1,45.52,37.83Z"/>
            <path d="M18.7,48a13.06,13.06,0,0,1-2.89-.28.89.89,0,0,1-.76-1,.91.91,0,0,1,1.09-.7A15.61,15.61,0,0,0,24,45.3c.51-.16,1-.34,1.52-.51a.89.89,0,0,1,1.22.53.88.88,0,0,1-.63,1.14,24,24,0,0,1-5.73,1.44A12.37,12.37,0,0,1,18.7,48Z"/>
            <path d="M24.75,18.45c0-1.54,0-3.07,0-4.61a.36.36,0,0,1,.23-.39c1.21-.56,2.41-1.15,3.62-1.72a3.63,3.63,0,0,1,1.51-.42,1.55,1.55,0,0,1,1.67,1.45,3.9,3.9,0,0,1-.72,2.72,4.79,4.79,0,0,1-.88,1c-.15.12-.13.2,0,.34l1.93,2.79c.12.16.12.23-.08.32-.6.27-1.21.56-1.8.86-.16.08-.24.07-.33-.09-.54-.86-1.1-1.71-1.64-2.57-.13-.22-.23-.23-.43-.12s-.59.3-.89.43a.31.31,0,0,0-.22.34c0,1.14,0,2.28,0,3.42a.38.38,0,0,1-.26.4c-.48.21-1,.44-1.42.68-.22.11-.26.07-.26-.16C24.75,21.57,24.75,20,24.75,18.45ZM26.68,17c.74-.39,1.48-.65,2.13-1.07a2.09,2.09,0,0,0,1.05-1.71c0-.7-.37-1-1.05-.8l-.21.07-1.78.84c-.09.05-.15.1-.15.21C26.68,15.3,26.68,16.1,26.68,17Z"/>
            <path d="M16.12,19.42V17.86c0-.13.06-.18.16-.23L23,14.42c.16-.08.23-.07.22.13,0,.43,0,.85,0,1.27a.31.31,0,0,1-.2.32l-2.12,1a.37.37,0,0,0-.25.4c0,2.51,0,5,0,7.54a.41.41,0,0,1-.28.44c-.48.21-.94.44-1.4.67-.22.12-.27.06-.27-.17q0-3.06,0-6.13c0-.47,0-.94,0-1.41,0-.23,0-.28-.26-.17l-2.13,1Z"/>
            <path d="M42.12,8.43c-.57-.1-1.13-.2-1.71-.25a16.39,16.39,0,0,0-5.31.49,28.66,28.66,0,0,0-3.15,1,1.11,1.11,0,0,1-.8,0,.91.91,0,0,1-.62-.86.93.93,0,0,1,.64-.93,30.6,30.6,0,0,1,3.25-1,19.61,19.61,0,0,1,5.22-.65,14.06,14.06,0,0,1,2.75.33.94.94,0,0,1,.74.91,1,1,0,0,1-.71.92A2.68,2.68,0,0,1,42.12,8.43Z"/>
            <path d="M39.15,20.7a14.9,14.9,0,0,1,3.13.31,1,1,0,0,1,.83,1.11,1,1,0,0,1-1.22.75,13.71,13.71,0,0,0-2.78-.26,21.16,21.16,0,0,0-6.45,1.26l-.8.28a1,1,0,0,1-1.29-.57,1,1,0,0,1,.63-1.22,25.57,25.57,0,0,1,6.67-1.6C38.33,20.72,38.79,20.71,39.15,20.7Z"/>
            <path d="M10.5,31.57a13.14,13.14,0,0,1-3-.27,1,1,0,0,1-.83-1.13,1,1,0,0,1,1.2-.74,16,16,0,0,0,7.29-.4c.95-.25,1.87-.57,2.79-.89A1,1,0,0,1,19,29.62a1,1,0,0,1-.48.33,25,25,0,0,1-7.07,1.62C11.16,31.59,10.83,31.57,10.5,31.57Z"/>
            <path d="M11.16,17.11a15.78,15.78,0,0,1-3.69-.3A.95.95,0,0,1,7.37,15a1,1,0,0,1,.45,0,15.38,15.38,0,0,0,6.88-.27,29.91,29.91,0,0,0,3.18-1,1,1,0,0,1,1.36.72.93.93,0,0,1-.61,1,26.82,26.82,0,0,1-5.35,1.46A20.08,20.08,0,0,1,11.16,17.11Z"/>
        </g>
    </g>
</svg>