<svg xmlns="http://www.w3.org/2000/svg" viewBox="0 0 23.54 23.55"><title>check</title><g id="Calque_2" data-name="Calque 2"><g id="Calque_1-2" data-name="Calque 1"><path d="M10.58,15.8a1,1,0,0,1-.73-.31L7.26,12.76a1,1,0,0,1,0-1.41,1,1,0,0,1,1.42,0l1.81,1.91,5-6.11a1,1,0,1,1,1.54,1.27l-5.72,7a1,1,0,0,1-.74.37Z"/><path d="M11.77,23.55A11.78,11.78,0,0,1,3.44,3.45,11.78,11.78,0,0,1,20.1,20.1a11.69,11.69,0,0,1-8.33,3.45ZM11.77,2A9.78,9.78,0,0,0,4.86,18.69a9.79,9.79,0,0,0,13.83,0A9.78,9.78,0,0,0,11.77,2Z"/></g></g></svg>