<svg xmlns="http://www.w3.org/2000/svg" viewBox="0 0 49.66 54.47">
    <title>Fichier 50</title>
    <g id="Calque_2" data-name="Calque 2">
        <g id="Calque_1-2" data-name="Calque 1">
            <path class="cls-1"
                  d="M48.67,47.33c-1.05-3.44-9.51-8.1-13.44-9.82a1,1,0,0,0-.84,0l-9.54,4.61-8.55-4.6a1.07,1.07,0,0,0-.84,0C12,38.83,2,43.51,1,47.37c-.71,2.77-1,4.12-1,4.18a1.23,1.23,0,0,0,0,.2,2.39,2.39,0,0,0,1.25,2.3,6,6,0,0,0,2.9.38H44.83l.88,0,.85,0c.76,0,3.1,0,3.1-2.59C49.66,50.84,49.56,50.25,48.67,47.33Zm-2.11,5.14-.78,0-1,0H3.48a3.71,3.71,0,0,1-1.3-.16c-.06,0-.16-.08-.18-.42s.38-1.7,1-4,7.7-6.3,12.79-8.35l8.59,4.61a1,1,0,0,0,.91,0l9.59-4.63c5.63,2.53,11.35,6.54,11.91,8.38.85,2.81.9,3.22.9,4C47.66,52.34,47.66,52.47,46.56,52.47Z"/>
            <path class="cls-1"
                  d="M14.33,25.74a18.49,18.49,0,0,0,1.8,3.33l.56.89a9.63,9.63,0,0,0,2,2.47,18.12,18.12,0,0,1-.4,3.09,1,1,0,0,0,1.94.48,22,22,0,0,0,.48-4,1.05,1.05,0,0,0-.43-.85,6.9,6.9,0,0,1-1.93-2.2c-.19-.32-.38-.62-.57-.92A15.9,15.9,0,0,1,16,24.56a1.11,1.11,0,0,0-.91-.67.81.81,0,0,1-.5-.42,11,11,0,0,1-1.26-5.26.91.91,0,0,1,.39-.05,1,1,0,0,0,.74-.3,1,1,0,0,0,.28-.74c-.21-5.73,1.9-8.82,3.71-10.4a1,1,0,0,0,.26-1.16s0,0,0-.08A4.67,4.67,0,0,1,21,5l.06-1,.82-.57a1.41,1.41,0,0,1,.26-.85,5.31,5.31,0,0,0,2,1,32,32,0,0,1,4.47,1.57c4.26,1.69,6.58,6.07,6.36,12a1,1,0,0,0,.28.72,1,1,0,0,0,.7.31c.19,0,.28,0,.28,0A10.56,10.56,0,0,1,35,23.48a1,1,0,0,1-.5.44,1,1,0,0,0-.8.64A17.47,17.47,0,0,1,31.91,28c-.21.31-.41.63-.62,1a7.47,7.47,0,0,1-1.73,2.12,1,1,0,0,0-.39.79,17.71,17.71,0,0,0,.51,4.24,1,1,0,0,0,1,.74,1.24,1.24,0,0,0,.27,0,1,1,0,0,0,.7-1.23,14.77,14.77,0,0,1-.43-3.27A10.58,10.58,0,0,0,33,30l.59-.94a18.76,18.76,0,0,0,1.82-3.34,3,3,0,0,0,1.36-1.28c1.17-2.14,1.84-5.56,1.36-6.92A1.91,1.91,0,0,0,37,16.35C37,10,34.18,5.15,29.4,3.26a34.47,34.47,0,0,0-4.7-1.64A2.93,2.93,0,0,1,23.24.84a1,1,0,0,0-.42-.66A1,1,0,0,0,22.05,0c-.87.17-1.63,1.34-1.93,2.09a3.17,3.17,0,0,0-.24.9c-1.32.18-3.18.82-3.69,2.69a1,1,0,0,0-.05.52c-1.73,1.94-3.38,5.1-3.39,10.08a1.89,1.89,0,0,0-1.25,1.21c-.48,1.36.19,4.78,1.35,6.92A2.93,2.93,0,0,0,14.33,25.74Z"/>
        </g>
    </g>
</svg>