<svg xmlns="http://www.w3.org/2000/svg" viewBox="0 0 50 54"><title>Fichier 71</title><g id="Calque_2" data-name="Calque 2"><g id="Calque_1-2" data-name="Calque 1"><path class="cls-1" d="M45,6H32V4.5A4.77,4.77,0,0,0,27,0H23a4.77,4.77,0,0,0-5,4.5V6H5a5,5,0,0,0-5,5v3a1,1,0,0,0,1,1H3s0,.07,0,.1l3.58,34A5.57,5.57,0,0,0,12,54H38a5.57,5.57,0,0,0,5.41-4.87L47,15.1s0-.06,0-.1h2a1,1,0,0,0,1-1V11A5,5,0,0,0,45,6ZM20,4.5A2.79,2.79,0,0,1,23,2h4a2.79,2.79,0,0,1,3,2.5V6H20ZM41.42,48.92A3.56,3.56,0,0,1,38,52H12a3.56,3.56,0,0,1-3.42-3.08L5,15H45ZM48,13H2V11A3,3,0,0,1,5,8H45a3,3,0,0,1,3,3Z"/><path class="cls-1" d="M16,47a1,1,0,0,0,1-1V21a1,1,0,0,0-2,0V46A1,1,0,0,0,16,47Z"/><path class="cls-1" d="M25,47a1,1,0,0,0,1-1V21a1,1,0,0,0-2,0V46A1,1,0,0,0,25,47Z"/><path class="cls-1" d="M34,47a1,1,0,0,0,1-1V21a1,1,0,0,0-2,0V46A1,1,0,0,0,34,47Z"/></g></g></svg>