<svg xmlns="http://www.w3.org/2000/svg" viewBox="0 0 297.4 540.2"><defs><style>.cls-1{fill:#fff;}</style></defs><title>Fichier 1</title><g id="Calque_2" data-name="Calque 2"><g id="Capa_1" data-name="Capa 1"><path class="cls-1" d="M47.9,194.1V504.2a28.36,28.36,0,0,0,8.9,21,29.5,29.5,0,0,0,50.1-21V194.1c8.9-3.1,42.1-32.7,42.1-42.2V27.2a14.69,14.69,0,0,0-4.4-10.5,14.29,14.29,0,0,0-10.5-4.4,14.69,14.69,0,0,0-10.5,4.4,14.29,14.29,0,0,0-4.4,10.5v97a14.69,14.69,0,0,1-4.4,10.5,14.29,14.29,0,0,1-10.5,4.4,14.69,14.69,0,0,1-10.5-4.4,14.52,14.52,0,0,1-4.4-10.5v-97A14.69,14.69,0,0,0,85,16.7a14,14,0,0,0-10.5-4.4A14.69,14.69,0,0,0,64,16.7a14.29,14.29,0,0,0-4.4,10.5v97a14.69,14.69,0,0,1-4.4,10.5,14.29,14.29,0,0,1-10.5,4.4,14.69,14.69,0,0,1-10.5-4.4,14.13,14.13,0,0,1-4.4-10.5v-97a14.69,14.69,0,0,0-4.4-10.5,14,14,0,0,0-10.5-4.4A14.69,14.69,0,0,0,4.4,16.7,14.69,14.69,0,0,0,0,27.2V151.9C-.3,161.4,39,191,47.9,194.1Z"/><path class="cls-1" d="M77.7,534.1h0Z"/><path class="cls-1" d="M268.2,540.2h0Z"/><path class="cls-1" d="M204.5,268.6h33.9V510.4a28.36,28.36,0,0,0,8.9,21,29.5,29.5,0,0,0,50.1-21V14.9A14.69,14.69,0,0,0,293,4.4,14.52,14.52,0,0,0,282.5,0H271.8q-30.75,0-52.7,21.9T197.2,74.6V261.1a6.88,6.88,0,0,0,2.2,5.2A6.77,6.77,0,0,0,204.5,268.6Z"/></g></g></svg>