<?xml version="1.0" encoding="utf-8"?>
<!-- Generator: Adobe Illustrator 23.0.3, SVG Export Plug-In . SVG Version: 6.00 Build 0)  -->
<svg version="1.1" id="Calque_1" xmlns="http://www.w3.org/2000/svg" xmlns:xlink="http://www.w3.org/1999/xlink" x="0px" y="0px"
	 viewBox="0 0 30 30" style="enable-background:new 0 0 30 30;" xml:space="preserve">
<style type="text/css">
	.st2{fill:none;stroke:#FFFFFF;stroke-miterlimit:10;}
</style>
<g id="Groupe_140" transform="translate(-65 -1081)">
	<g id="Groupe_136" transform="translate(-50 720)">
		<circle id="Ellipse_16" cx="130" cy="376" r="15"/>
	</g>
	<g id="Groupe_139" transform="translate(-301 959)">
		<path id="Rectangle_24" class="st2" d="M375.7,133.4h10.2l0,0v8.6c0,1.7-1.3,3-3,3h-4.2c-1.7,0-3-1.3-3-3V133.4L375.7,133.4z"/>
		<path id="Rectangle_25" class="st2" d="M377,131.4h7.6c1.1,0,2,0.9,2,2v0l0,0H375l0,0v0C375,132.3,375.9,131.4,377,131.4z"/>
		<path id="Tracé_2614" class="st2" d="M378.8,131.4v-0.7c0-0.4,0.3-0.7,0.7-0.7l0,0h2.7c0.4,0,0.7,0.3,0.7,0.7v0v0.7"/>
		<line id="Ligne_33" class="st2" x1="378.4" y1="135.5" x2="378.4" y2="142.6"/>
		<line id="Ligne_34" class="st2" x1="380.8" y1="135.5" x2="380.8" y2="142.6"/>
		<line id="Ligne_35" class="st2" x1="383.2" y1="135.5" x2="383.2" y2="142.6"/>
	</g>
</g>
</svg>
