<?xml version="1.0" encoding="UTF-8"?>
<svg xmlns="http://www.w3.org/2000/svg" viewBox="0 0 22.18 24.56">
   <title>deliveroo</title>
   <g id="Calque_2" data-name="Calque 2">
      <g id="Calque_1-2" data-name="Calque 1">
         <path d="M16,0c.2.05.41.05.61.08L18.79.3l1.85.19,1.48.16c.06,0,.07,0,.06.09,0,.4-.08.81-.13,1.22s-.11,1.09-.17,1.63-.13,1.24-.19,1.86-.12,1-.17,1.58-.13,1.25-.2,1.87-.11,1.08-.17,1.62S21,11.59,21,12.13s-.13,1.22-.19,1.83-.13,1.25-.2,1.88a4.57,4.57,0,0,0-.05.52,1.54,1.54,0,0,1-.17.6q-1.65,3.73-3.32,7.47c-.05.12-.1.15-.24.12-2.15-.47-4.3-.92-6.46-1.38l-6.6-1.4-2.12-.45c-.07,0-.09-.05-.11-.12-.21-1-.43-2-.64-3-.27-1.25-.53-2.5-.8-3.75,0-.12,0-.24-.07-.36S0,14,.07,14l2.06-.43,4.09-.87,2.4-.51c.11,0,.14-.05.12-.18Q8.06,8.87,7.41,5.77C7.22,4.88,7,4,6.85,3.1c0-.08,0-.1.08-.12l3.26-.69,2.62-.56c.09,0,.11,0,.13.09q.71,3.3,1.4,6.6c.17.76.33,1.53.5,2.29a.06.06,0,0,0,0,0c.05-.41.09-.83.13-1.24.07-.62.13-1.24.2-1.86s.11-1.06.17-1.6.13-1.24.19-1.86.13-1.23.2-1.84.13-1.26.2-1.89A1.89,1.89,0,0,1,16,0ZM14.82,16.57a.8.8,0,0,0,.71-.27,1.33,1.33,0,0,0,.29-.77,1,1,0,0,0-.85-1,.8.8,0,0,0-.7.13,1.19,1.19,0,0,0-.5,1,.77.77,0,0,0,.58.82A1.28,1.28,0,0,0,14.82,16.57Zm-4.4-.63a.91.91,0,0,0,.8-.33,1,1,0,0,0-.05-1.37,1.17,1.17,0,0,0-.88-.29c-.55.07-.8.28-.87.81a1,1,0,0,0,.28.94A1.26,1.26,0,0,0,10.42,15.94Z" />
      </g>
   </g>
</svg>