<svg xmlns="http://www.w3.org/2000/svg" viewBox="0 0 54 54">
    <title>Fichier 48</title>
    <g id="Calque_2" data-name="Calque 2">
        <g id="Calque_1-2" data-name="Calque 1">
            <path d="M49,0H5A5,5,0,0,0,0,5V49a5,5,0,0,0,5,5H49a5,5,0,0,0,5-5V5A5,5,0,0,0,49,0ZM7,52H5a3,3,0,0,1-3-3V5A3,3,0,0,1,5,2H40a3,3,0,0,1,3,3V49a3,3,0,0,1-3,3Zm45-3a3,3,0,0,1-3,3H44a4.92,4.92,0,0,0,1-3V5a4.92,4.92,0,0,0-1-3h5a3,3,0,0,1,1.29.3l-3,3a1,1,0,0,0,0,1.42,1,1,0,0,0,1.42,0l3-3A3,3,0,0,1,52,5Z"/>
            <path d="M11,10a2,2,0,0,1,2,2,2,2,0,0,1-.21.9,1,1,0,1,0,1.78.91A4.05,4.05,0,0,0,15,12a4,4,0,0,0-8,0,3.94,3.94,0,0,0,.45,1.84,1,1,0,0,0,.89.54,1,1,0,0,0,.45-.11,1,1,0,0,0,.43-1.35A2,2,0,0,1,9,12,2,2,0,0,1,11,10Z"/>
            <path d="M34,8a4,4,0,0,0-4,4,3.94,3.94,0,0,0,.45,1.84,1,1,0,0,0,.89.54,1,1,0,0,0,.45-.11,1,1,0,0,0,.43-1.35A2,2,0,0,1,32,12a2,2,0,0,1,4,0,2,2,0,0,1-.21.9,1,1,0,1,0,1.78.91A4.05,4.05,0,0,0,38,12,4,4,0,0,0,34,8Z"/>
            <path d="M34,12a1,1,0,0,0-1,1v5.5c0,5.24-4.71,9.5-10.5,9.5S12,23.74,12,18.5V13a1,1,0,0,0-2,0v5.5C10,24.84,15.61,30,22.5,30S35,24.84,35,18.5V13A1,1,0,0,0,34,12Z"/>
        </g>
    </g>
</svg>