<svg xmlns="http://www.w3.org/2000/svg" viewBox="0 0 50.06 26.35">
    <defs>
        <style>.clsvgus-1{fill:#fff;}.clsvgus-2{fill:#c02033;}.clsvgus-3{fill:#213064;}</style>
    </defs>
    <title>Fichier 42</title>
    <g id="Calque_2" data-name="Calque 2">
        <g id="Calque_1-2" data-name="Calque 1">
            <rect class="clsvgus-1" width="50.06" height="26.35"/>
            <rect class="clsvgus-2" width="50.06" height="2.03"/>
            <rect class="clsvgus-2" y="4.05" width="50.06" height="2.03"/>
            <rect class="clsvgus-2" y="8.11" width="50.06" height="2.03"/>
            <rect class="clsvgus-2" y="12.16" width="50.06" height="2.03"/>
            <rect class="clsvgus-2" y="16.22" width="50.06" height="2.03"/>
            <rect class="clsvgus-2" y="20.27" width="50.06" height="2.03"/>
            <rect class="clsvgus-2" y="24.32" width="50.06" height="2.03"/>
            <rect class="clsvgus-3" width="20.03" height="14.19"/>
            <polygon class="clsvgus-1" points="1.79 1.65 2.48 1.15 1.63 1.15 1.79 1.65"/>
            <polygon class="clsvgus-1" points="1.5 1.56 2.19 2.06 1.93 1.25 1.5 1.56"/>
            <polygon class="clsvgus-1" points="1.5 1.25 1.24 2.06 1.93 1.56 1.5 1.25"/>
            <polygon class="clsvgus-1" points="1.79 1.15 0.94 1.15 1.63 1.65 1.79 1.15"/>
            <polygon class="clsvgus-1" points="1.98 1.4 1.71 0.59 1.45 1.4 1.98 1.4"/>
            <polygon class="clsvgus-1" points="5.11 1.65 5.8 1.15 4.95 1.15 5.11 1.65"/>
            <polygon class="clsvgus-1" points="4.82 1.56 5.51 2.06 5.25 1.25 4.82 1.56"/>
            <polygon class="clsvgus-1" points="4.82 1.25 4.56 2.06 5.25 1.56 4.82 1.25"/>
            <polygon class="clsvgus-1" points="5.11 1.15 4.26 1.15 4.95 1.65 5.11 1.15"/>
            <polygon class="clsvgus-1" points="5.3 1.4 5.03 0.59 4.77 1.4 5.3 1.4"/>
            <polygon class="clsvgus-1" points="8.44 1.65 9.13 1.15 8.27 1.15 8.44 1.65"/>
            <polygon class="clsvgus-1" points="8.14 1.56 8.83 2.06 8.57 1.25 8.14 1.56"/>
            <polygon class="clsvgus-1" points="8.14 1.25 7.88 2.06 8.57 1.56 8.14 1.25"/>
            <polygon class="clsvgus-1" points="8.44 1.15 7.58 1.15 8.27 1.65 8.44 1.15"/>
            <polygon class="clsvgus-1" points="8.62 1.4 8.35 0.59 8.09 1.4 8.62 1.4"/>
            <polygon class="clsvgus-1" points="11.76 1.65 12.45 1.15 11.59 1.15 11.76 1.65"/>
            <polygon class="clsvgus-1" points="11.46 1.56 12.15 2.06 11.89 1.25 11.46 1.56"/>
            <polygon class="clsvgus-1" points="11.46 1.25 11.2 2.06 11.89 1.56 11.46 1.25"/>
            <polygon class="clsvgus-1" points="11.76 1.15 10.9 1.15 11.59 1.65 11.76 1.15"/>
            <polygon class="clsvgus-1" points="11.94 1.4 11.67 0.59 11.41 1.4 11.94 1.4"/>
            <polygon class="clsvgus-1" points="15.07 1.65 15.77 1.15 14.91 1.15 15.07 1.65"/>
            <polygon class="clsvgus-1" points="14.78 1.56 15.47 2.06 15.21 1.25 14.78 1.56"/>
            <polygon class="clsvgus-1" points="14.78 1.25 14.52 2.06 15.21 1.56 14.78 1.25"/>
            <polygon class="clsvgus-1" points="15.07 1.15 14.22 1.15 14.91 1.65 15.07 1.15"/>
            <polygon class="clsvgus-1" points="15.26 1.4 14.99 0.59 14.73 1.4 15.26 1.4"/>
            <polygon class="clsvgus-1" points="18.39 1.65 19.09 1.15 18.23 1.15 18.39 1.65"/>
            <polygon class="clsvgus-1" points="18.1 1.56 18.79 2.06 18.53 1.25 18.1 1.56"/>
            <polygon class="clsvgus-1" points="18.1 1.25 17.84 2.06 18.53 1.56 18.1 1.25"/>
            <polygon class="clsvgus-1" points="18.39 1.15 17.54 1.15 18.23 1.65 18.39 1.15"/>
            <polygon class="clsvgus-1" points="18.58 1.4 18.31 0.59 18.05 1.4 18.58 1.4"/>
            <polygon class="clsvgus-1" points="3.46 3.08 4.14 2.58 3.29 2.58 3.46 3.08"/>
            <polygon class="clsvgus-1" points="3.16 2.98 3.85 3.48 3.59 2.67 3.16 2.98"/>
            <polygon class="clsvgus-1" points="3.16 2.67 2.9 3.48 3.59 2.98 3.16 2.67"/>
            <polygon class="clsvgus-1" points="3.46 2.58 2.6 2.58 3.29 3.08 3.46 2.58"/>
            <polygon class="clsvgus-1" points="3.64 2.83 3.37 2.01 3.11 2.83 3.64 2.83"/>
            <polygon class="clsvgus-1" points="6.78 3.08 7.46 2.58 6.61 2.58 6.78 3.08"/>
            <polygon class="clsvgus-1" points="6.48 2.98 7.17 3.48 6.91 2.67 6.48 2.98"/>
            <polygon class="clsvgus-1" points="6.48 2.67 6.22 3.48 6.91 2.98 6.48 2.67"/>
            <polygon class="clsvgus-1" points="6.78 2.58 5.92 2.58 6.61 3.08 6.78 2.58"/>
            <polygon class="clsvgus-1" points="6.96 2.83 6.69 2.01 6.43 2.83 6.96 2.83"/>
            <polygon class="clsvgus-1" points="10.1 3.08 10.79 2.58 9.93 2.58 10.1 3.08"/>
            <polygon class="clsvgus-1" points="9.8 2.98 10.49 3.48 10.23 2.67 9.8 2.98"/>
            <polygon class="clsvgus-1" points="9.8 2.67 9.54 3.48 10.23 2.98 9.8 2.67"/>
            <polygon class="clsvgus-1" points="10.1 2.58 9.24 2.58 9.93 3.08 10.1 2.58"/>
            <polygon class="clsvgus-1" points="10.28 2.83 10.01 2.01 9.75 2.83 10.28 2.83"/>
            <polygon class="clsvgus-1" points="13.41 3.08 14.11 2.58 13.25 2.58 13.41 3.08"/>
            <polygon class="clsvgus-1" points="13.12 2.98 13.81 3.48 13.55 2.67 13.12 2.98"/>
            <polygon class="clsvgus-1" points="13.12 2.67 12.86 3.48 13.55 2.98 13.12 2.67"/>
            <polygon class="clsvgus-1" points="13.41 2.58 12.56 2.58 13.25 3.08 13.41 2.58"/>
            <polygon class="clsvgus-1" points="13.6 2.83 13.33 2.01 13.07 2.83 13.6 2.83"/>
            <polygon class="clsvgus-1" points="16.73 3.08 17.43 2.58 16.57 2.58 16.73 3.08"/>
            <polygon class="clsvgus-1" points="16.44 2.98 17.13 3.48 16.87 2.67 16.44 2.98"/>
            <polygon class="clsvgus-1" points="16.44 2.67 16.18 3.48 16.87 2.98 16.44 2.67"/>
            <polygon class="clsvgus-1" points="16.73 2.58 15.88 2.58 16.57 3.08 16.73 2.58"/>
            <polygon class="clsvgus-1" points="16.92 2.83 16.65 2.01 16.39 2.83 16.92 2.83"/>
            <polygon class="clsvgus-1" points="1.79 4.5 2.48 4 1.63 4 1.79 4.5"/>
            <polygon class="clsvgus-1" points="1.5 4.4 2.19 4.91 1.93 4.09 1.5 4.4"/>
            <polygon class="clsvgus-1" points="1.5 4.09 1.24 4.91 1.93 4.4 1.5 4.09"/>
            <polygon class="clsvgus-1" points="1.79 4 0.94 4 1.63 4.5 1.79 4"/>
            <polygon class="clsvgus-1" points="1.98 4.25 1.71 3.44 1.45 4.25 1.98 4.25"/>
            <polygon class="clsvgus-1" points="5.11 4.5 5.8 4 4.95 4 5.11 4.5"/>
            <polygon class="clsvgus-1" points="4.82 4.4 5.51 4.91 5.25 4.09 4.82 4.4"/>
            <polygon class="clsvgus-1" points="4.82 4.09 4.56 4.91 5.25 4.4 4.82 4.09"/>
            <polygon class="clsvgus-1" points="5.11 4 4.26 4 4.95 4.5 5.11 4"/>
            <polygon class="clsvgus-1" points="5.3 4.25 5.03 3.44 4.77 4.25 5.3 4.25"/>
            <polygon class="clsvgus-1" points="8.44 4.5 9.13 4 8.27 4 8.44 4.5"/>
            <polygon class="clsvgus-1" points="8.14 4.4 8.83 4.91 8.57 4.09 8.14 4.4"/>
            <polygon class="clsvgus-1" points="8.14 4.09 7.88 4.91 8.57 4.4 8.14 4.09"/>
            <polygon class="clsvgus-1" points="8.44 4 7.58 4 8.27 4.5 8.44 4"/>
            <polygon class="clsvgus-1" points="8.62 4.25 8.35 3.44 8.09 4.25 8.62 4.25"/>
            <polygon class="clsvgus-1" points="11.76 4.5 12.45 4 11.59 4 11.76 4.5"/>
            <polygon class="clsvgus-1" points="11.46 4.4 12.15 4.91 11.89 4.09 11.46 4.4"/>
            <polygon class="clsvgus-1" points="11.46 4.09 11.2 4.91 11.89 4.4 11.46 4.09"/>
            <polygon class="clsvgus-1" points="11.76 4 10.9 4 11.59 4.5 11.76 4"/>
            <polygon class="clsvgus-1" points="11.94 4.25 11.67 3.44 11.41 4.25 11.94 4.25"/>
            <polygon class="clsvgus-1" points="15.07 4.5 15.77 4 14.91 4 15.07 4.5"/>
            <polygon class="clsvgus-1" points="14.78 4.4 15.47 4.91 15.21 4.09 14.78 4.4"/>
            <polygon class="clsvgus-1" points="14.78 4.09 14.52 4.91 15.21 4.4 14.78 4.09"/>
            <polygon class="clsvgus-1" points="15.07 4 14.22 4 14.91 4.5 15.07 4"/>
            <polygon class="clsvgus-1" points="15.26 4.25 14.99 3.44 14.73 4.25 15.26 4.25"/>
            <polygon class="clsvgus-1" points="18.39 4.5 19.09 4 18.23 4 18.39 4.5"/>
            <polygon class="clsvgus-1" points="18.1 4.4 18.79 4.91 18.53 4.09 18.1 4.4"/>
            <polygon class="clsvgus-1" points="18.1 4.09 17.84 4.91 18.53 4.4 18.1 4.09"/>
            <polygon class="clsvgus-1" points="18.39 4 17.54 4 18.23 4.5 18.39 4"/>
            <polygon class="clsvgus-1" points="18.58 4.25 18.31 3.44 18.05 4.25 18.58 4.25"/>
            <polygon class="clsvgus-1" points="3.5 6.03 4.18 5.53 3.33 5.53 3.5 6.03"/>
            <polygon class="clsvgus-1" points="3.2 5.94 3.89 6.44 3.63 5.63 3.2 5.94"/>
            <polygon class="clsvgus-1" points="3.2 5.63 2.94 6.44 3.63 5.94 3.2 5.63"/>
            <polygon class="clsvgus-1" points="3.5 5.53 2.64 5.53 3.33 6.03 3.5 5.53"/>
            <polygon class="clsvgus-1" points="3.68 5.78 3.41 4.97 3.15 5.78 3.68 5.78"/>
            <polygon class="clsvgus-1" points="6.82 6.03 7.5 5.53 6.65 5.53 6.82 6.03"/>
            <polygon class="clsvgus-1" points="6.52 5.94 7.21 6.44 6.95 5.63 6.52 5.94"/>
            <polygon class="clsvgus-1" points="6.52 5.63 6.26 6.44 6.95 5.94 6.52 5.63"/>
            <polygon class="clsvgus-1" points="6.82 5.53 5.96 5.53 6.65 6.03 6.82 5.53"/>
            <polygon class="clsvgus-1" points="7 5.78 6.73 4.97 6.47 5.78 7 5.78"/>
            <polygon class="clsvgus-1" points="10.13 6.03 10.82 5.53 9.97 5.53 10.13 6.03"/>
            <polygon class="clsvgus-1" points="9.84 5.94 10.53 6.44 10.27 5.63 9.84 5.94"/>
            <polygon class="clsvgus-1" points="9.84 5.63 9.58 6.44 10.27 5.94 9.84 5.63"/>
            <polygon class="clsvgus-1" points="10.13 5.53 9.28 5.53 9.97 6.03 10.13 5.53"/>
            <polygon class="clsvgus-1" points="10.32 5.78 10.05 4.97 9.79 5.78 10.32 5.78"/>
            <polygon class="clsvgus-1" points="13.46 6.03 14.14 5.53 13.29 5.53 13.46 6.03"/>
            <polygon class="clsvgus-1" points="13.16 5.94 13.85 6.44 13.59 5.63 13.16 5.94"/>
            <polygon class="clsvgus-1" points="13.16 5.63 12.9 6.44 13.59 5.94 13.16 5.63"/>
            <polygon class="clsvgus-1" points="13.46 5.53 12.6 5.53 13.29 6.03 13.46 5.53"/>
            <polygon class="clsvgus-1" points="13.64 5.78 13.37 4.97 13.11 5.78 13.64 5.78"/>
            <polygon class="clsvgus-1" points="16.77 6.03 17.46 5.53 16.61 5.53 16.77 6.03"/>
            <polygon class="clsvgus-1" points="16.48 5.94 17.17 6.44 16.91 5.63 16.48 5.94"/>
            <polygon class="clsvgus-1" points="16.48 5.63 16.22 6.44 16.91 5.94 16.48 5.63"/>
            <polygon class="clsvgus-1" points="16.77 5.53 15.92 5.53 16.61 6.03 16.77 5.53"/>
            <polygon class="clsvgus-1" points="16.96 5.78 16.69 4.97 16.43 5.78 16.96 5.78"/>
            <polygon class="clsvgus-1" points="1.83 7.46 2.52 6.95 1.67 6.95 1.83 7.46"/>
            <polygon class="clsvgus-1" points="1.54 7.36 2.23 7.86 1.97 7.05 1.54 7.36"/>
            <polygon class="clsvgus-1" points="1.54 7.05 1.28 7.86 1.97 7.36 1.54 7.05"/>
            <polygon class="clsvgus-1" points="1.83 6.95 0.98 6.95 1.67 7.46 1.83 6.95"/>
            <polygon class="clsvgus-1" points="2.02 7.2 1.75 6.39 1.49 7.2 2.02 7.2"/>
            <polygon class="clsvgus-1" points="5.16 7.46 5.84 6.95 4.99 6.95 5.16 7.46"/>
            <polygon class="clsvgus-1" points="4.86 7.36 5.55 7.86 5.29 7.05 4.86 7.36"/>
            <polygon class="clsvgus-1" points="4.86 7.05 4.6 7.86 5.29 7.36 4.86 7.05"/>
            <polygon class="clsvgus-1" points="5.16 6.95 4.3 6.95 4.99 7.46 5.16 6.95"/>
            <polygon class="clsvgus-1" points="5.34 7.2 5.07 6.39 4.81 7.2 5.34 7.2"/>
            <polygon class="clsvgus-1" points="8.47 7.46 9.16 6.95 8.31 6.95 8.47 7.46"/>
            <polygon class="clsvgus-1" points="8.18 7.36 8.87 7.86 8.61 7.05 8.18 7.36"/>
            <polygon class="clsvgus-1" points="8.18 7.05 7.92 7.86 8.61 7.36 8.18 7.05"/>
            <polygon class="clsvgus-1" points="8.47 6.95 7.62 6.95 8.31 7.46 8.47 6.95"/>
            <polygon class="clsvgus-1" points="8.66 7.2 8.39 6.39 8.13 7.2 8.66 7.2"/>
            <polygon class="clsvgus-1" points="11.79 7.46 12.48 6.95 11.63 6.95 11.79 7.46"/>
            <polygon class="clsvgus-1" points="11.5 7.36 12.19 7.86 11.93 7.05 11.5 7.36"/>
            <polygon class="clsvgus-1" points="11.5 7.05 11.24 7.86 11.93 7.36 11.5 7.05"/>
            <polygon class="clsvgus-1" points="11.79 6.95 10.94 6.95 11.63 7.46 11.79 6.95"/>
            <polygon class="clsvgus-1" points="11.98 7.2 11.71 6.39 11.45 7.2 11.98 7.2"/>
            <polygon class="clsvgus-1" points="15.12 7.46 15.8 6.95 14.95 6.95 15.12 7.46"/>
            <polygon class="clsvgus-1" points="14.82 7.36 15.51 7.86 15.25 7.05 14.82 7.36"/>
            <polygon class="clsvgus-1" points="14.82 7.05 14.56 7.86 15.25 7.36 14.82 7.05"/>
            <polygon class="clsvgus-1" points="15.12 6.95 14.26 6.95 14.95 7.46 15.12 6.95"/>
            <polygon class="clsvgus-1" points="15.3 7.2 15.03 6.39 14.77 7.2 15.3 7.2"/>
            <polygon class="clsvgus-1" points="18.43 7.46 19.13 6.95 18.27 6.95 18.43 7.46"/>
            <polygon class="clsvgus-1" points="18.14 7.36 18.83 7.86 18.57 7.05 18.14 7.36"/>
            <polygon class="clsvgus-1" points="18.14 7.05 17.88 7.86 18.57 7.36 18.14 7.05"/>
            <polygon class="clsvgus-1" points="18.43 6.95 17.58 6.95 18.27 7.46 18.43 6.95"/>
            <polygon class="clsvgus-1" points="18.62 7.2 18.35 6.39 18.09 7.2 18.62 7.2"/>
            <polygon class="clsvgus-1" points="3.48 8.78 4.17 8.28 3.31 8.28 3.48 8.78"/>
            <polygon class="clsvgus-1" points="3.18 8.69 3.87 9.19 3.61 8.38 3.18 8.69"/>
            <polygon class="clsvgus-1" points="3.18 8.38 2.92 9.19 3.61 8.69 3.18 8.38"/>
            <polygon class="clsvgus-1" points="3.48 8.28 2.62 8.28 3.31 8.78 3.48 8.28"/>
            <polygon class="clsvgus-1" points="3.66 8.53 3.4 7.72 3.13 8.53 3.66 8.53"/>
            <polygon class="clsvgus-1" points="6.8 8.78 7.49 8.28 6.63 8.28 6.8 8.78"/>
            <polygon class="clsvgus-1" points="6.5 8.69 7.19 9.19 6.93 8.38 6.5 8.69"/>
            <polygon class="clsvgus-1" points="6.5 8.38 6.24 9.19 6.93 8.69 6.5 8.38"/>
            <polygon class="clsvgus-1" points="6.8 8.28 5.94 8.28 6.63 8.78 6.8 8.28"/>
            <polygon class="clsvgus-1" points="6.98 8.53 6.72 7.72 6.45 8.53 6.98 8.53"/>
            <polygon class="clsvgus-1" points="10.12 8.78 10.81 8.28 9.95 8.28 10.12 8.78"/>
            <polygon class="clsvgus-1" points="9.82 8.69 10.51 9.19 10.25 8.38 9.82 8.69"/>
            <polygon class="clsvgus-1" points="9.82 8.38 9.56 9.19 10.25 8.69 9.82 8.38"/>
            <polygon class="clsvgus-1" points="10.12 8.28 9.26 8.28 9.95 8.78 10.12 8.28"/>
            <polygon class="clsvgus-1" points="10.3 8.53 10.04 7.72 9.77 8.53 10.3 8.53"/>
            <polygon class="clsvgus-1" points="13.44 8.78 14.13 8.28 13.28 8.28 13.44 8.78"/>
            <polygon class="clsvgus-1" points="13.14 8.69 13.83 9.19 13.57 8.38 13.14 8.69"/>
            <polygon class="clsvgus-1" points="13.14 8.38 12.88 9.19 13.57 8.69 13.14 8.38"/>
            <polygon class="clsvgus-1" points="13.44 8.28 12.58 8.28 13.28 8.78 13.44 8.28"/>
            <polygon class="clsvgus-1" points="13.62 8.53 13.36 7.72 13.09 8.53 13.62 8.53"/>
            <polygon class="clsvgus-1" points="16.76 8.78 17.45 8.28 16.59 8.28 16.76 8.78"/>
            <polygon class="clsvgus-1" points="16.46 8.69 17.15 9.19 16.89 8.38 16.46 8.69"/>
            <polygon class="clsvgus-1" points="16.46 8.38 16.2 9.19 16.89 8.69 16.46 8.38"/>
            <polygon class="clsvgus-1" points="16.76 8.28 15.9 8.28 16.59 8.78 16.76 8.28"/>
            <polygon class="clsvgus-1" points="16.94 8.53 16.68 7.72 16.41 8.53 16.94 8.53"/>
            <polygon class="clsvgus-1" points="1.82 10.21 2.51 9.7 1.65 9.7 1.82 10.21"/>
            <polygon class="clsvgus-1" points="1.52 10.11 2.21 10.61 1.95 9.8 1.52 10.11"/>
            <polygon class="clsvgus-1" points="1.52 9.8 1.26 10.61 1.95 10.11 1.52 9.8"/>
            <polygon class="clsvgus-1" points="1.82 9.7 0.96 9.7 1.65 10.21 1.82 9.7"/>
            <polygon class="clsvgus-1" points="2 9.95 1.74 9.14 1.47 9.95 2 9.95"/>
            <polygon class="clsvgus-1" points="5.14 10.21 5.83 9.7 4.97 9.7 5.14 10.21"/>
            <polygon class="clsvgus-1" points="4.84 10.11 5.53 10.61 5.27 9.8 4.84 10.11"/>
            <polygon class="clsvgus-1" points="4.84 9.8 4.58 10.61 5.27 10.11 4.84 9.8"/>
            <polygon class="clsvgus-1" points="5.14 9.7 4.28 9.7 4.97 10.21 5.14 9.7"/>
            <polygon class="clsvgus-1" points="5.32 9.95 5.06 9.14 4.79 9.95 5.32 9.95"/>
            <polygon class="clsvgus-1" points="8.46 10.21 9.15 9.7 8.29 9.7 8.46 10.21"/>
            <polygon class="clsvgus-1" points="8.16 10.11 8.85 10.61 8.59 9.8 8.16 10.11"/>
            <polygon class="clsvgus-1" points="8.16 9.8 7.9 10.61 8.59 10.11 8.16 9.8"/>
            <polygon class="clsvgus-1" points="8.46 9.7 7.6 9.7 8.29 10.21 8.46 9.7"/>
            <polygon class="clsvgus-1" points="8.64 9.95 8.38 9.14 8.11 9.95 8.64 9.95"/>
            <polygon class="clsvgus-1" points="11.78 10.21 12.47 9.7 11.62 9.7 11.78 10.21"/>
            <polygon class="clsvgus-1" points="11.48 10.11 12.17 10.61 11.91 9.8 11.48 10.11"/>
            <polygon class="clsvgus-1" points="11.48 9.8 11.22 10.61 11.91 10.11 11.48 9.8"/>
            <polygon class="clsvgus-1" points="11.78 9.7 10.92 9.7 11.62 10.21 11.78 9.7"/>
            <polygon class="clsvgus-1" points="11.96 9.95 11.7 9.14 11.43 9.95 11.96 9.95"/>
            <polygon class="clsvgus-1" points="15.1 10.21 15.79 9.7 14.94 9.7 15.1 10.21"/>
            <polygon class="clsvgus-1" points="14.8 10.11 15.49 10.61 15.23 9.8 14.8 10.11"/>
            <polygon class="clsvgus-1" points="14.8 9.8 14.54 10.61 15.23 10.11 14.8 9.8"/>
            <polygon class="clsvgus-1" points="15.1 9.7 14.24 9.7 14.94 10.21 15.1 9.7"/>
            <polygon class="clsvgus-1" points="15.28 9.95 15.02 9.14 14.75 9.95 15.28 9.95"/>
            <polygon class="clsvgus-1" points="18.42 10.21 19.11 9.7 18.25 9.7 18.42 10.21"/>
            <polygon class="clsvgus-1" points="18.12 10.11 18.81 10.61 18.55 9.8 18.12 10.11"/>
            <polygon class="clsvgus-1" points="18.12 9.8 17.86 10.61 18.55 10.11 18.12 9.8"/>
            <polygon class="clsvgus-1" points="18.42 9.7 17.57 9.7 18.25 10.21 18.42 9.7"/>
            <polygon class="clsvgus-1" points="18.6 9.95 18.34 9.14 18.07 9.95 18.6 9.95"/>
            <polygon class="clsvgus-1" points="3.54 11.55 4.23 11.04 3.38 11.04 3.54 11.55"/>
            <polygon class="clsvgus-1" points="3.25 11.45 3.94 11.95 3.67 11.14 3.25 11.45"/>
            <polygon class="clsvgus-1" points="3.25 11.14 2.98 11.95 3.67 11.45 3.25 11.14"/>
            <polygon class="clsvgus-1" points="3.54 11.04 2.69 11.04 3.38 11.55 3.54 11.04"/>
            <polygon class="clsvgus-1" points="3.73 11.29 3.46 10.48 3.2 11.29 3.73 11.29"/>
            <polygon class="clsvgus-1" points="6.86 11.55 7.55 11.04 6.7 11.04 6.86 11.55"/>
            <polygon class="clsvgus-1" points="6.57 11.45 7.26 11.95 7 11.14 6.57 11.45"/>
            <polygon class="clsvgus-1" points="6.57 11.14 6.3 11.95 7 11.45 6.57 11.14"/>
            <polygon class="clsvgus-1" points="6.86 11.04 6.01 11.04 6.7 11.55 6.86 11.04"/>
            <polygon class="clsvgus-1" points="7.05 11.29 6.78 10.48 6.52 11.29 7.05 11.29"/>
            <polygon class="clsvgus-1" points="10.18 11.55 10.87 11.04 10.02 11.04 10.18 11.55"/>
            <polygon class="clsvgus-1" points="9.89 11.45 10.58 11.95 10.31 11.14 9.89 11.45"/>
            <polygon class="clsvgus-1" points="9.89 11.14 9.63 11.95 10.31 11.45 9.89 11.14"/>
            <polygon class="clsvgus-1" points="10.18 11.04 9.33 11.04 10.02 11.55 10.18 11.04"/>
            <polygon class="clsvgus-1" points="10.37 11.29 10.1 10.48 9.84 11.29 10.37 11.29"/>
            <polygon class="clsvgus-1" points="13.5 11.55 14.19 11.04 13.34 11.04 13.5 11.55"/>
            <polygon class="clsvgus-1" points="13.21 11.45 13.9 11.95 13.63 11.14 13.21 11.45"/>
            <polygon class="clsvgus-1" points="13.21 11.14 12.95 11.95 13.63 11.45 13.21 11.14"/>
            <polygon class="clsvgus-1" points="13.5 11.04 12.65 11.04 13.34 11.55 13.5 11.04"/>
            <polygon class="clsvgus-1" points="13.69 11.29 13.42 10.48 13.16 11.29 13.69 11.29"/>
            <polygon class="clsvgus-1" points="16.82 11.55 17.51 11.04 16.66 11.04 16.82 11.55"/>
            <polygon class="clsvgus-1" points="16.53 11.45 17.22 11.95 16.96 11.14 16.53 11.45"/>
            <polygon class="clsvgus-1" points="16.53 11.14 16.27 11.95 16.96 11.45 16.53 11.14"/>
            <polygon class="clsvgus-1" points="16.82 11.04 15.97 11.04 16.66 11.55 16.82 11.04"/>
            <polygon class="clsvgus-1" points="17.01 11.29 16.74 10.48 16.48 11.29 17.01 11.29"/>
            <polygon class="clsvgus-1" points="1.88 12.97 2.57 12.47 1.72 12.47 1.88 12.97"/>
            <polygon class="clsvgus-1" points="1.59 12.87 2.28 13.37 2.02 12.56 1.59 12.87"/>
            <polygon class="clsvgus-1" points="1.59 12.56 1.32 13.37 2.02 12.87 1.59 12.56"/>
            <polygon class="clsvgus-1" points="1.88 12.47 1.03 12.47 1.72 12.97 1.88 12.47"/>
            <polygon class="clsvgus-1" points="2.06 12.72 1.8 11.91 1.54 12.72 2.06 12.72"/>
            <polygon class="clsvgus-1" points="5.2 12.97 5.89 12.47 5.04 12.47 5.2 12.97"/>
            <polygon class="clsvgus-1" points="4.91 12.87 5.6 13.37 5.33 12.56 4.91 12.87"/>
            <polygon class="clsvgus-1" points="4.91 12.56 4.64 13.37 5.33 12.87 4.91 12.56"/>
            <polygon class="clsvgus-1" points="5.2 12.47 4.35 12.47 5.04 12.97 5.2 12.47"/>
            <polygon class="clsvgus-1" points="5.39 12.72 5.12 11.91 4.86 12.72 5.39 12.72"/>
            <polygon class="clsvgus-1" points="8.52 12.97 9.21 12.47 8.36 12.47 8.52 12.97"/>
            <polygon class="clsvgus-1" points="8.23 12.87 8.92 13.37 8.65 12.56 8.23 12.87"/>
            <polygon class="clsvgus-1" points="8.23 12.56 7.96 13.37 8.65 12.87 8.23 12.56"/>
            <polygon class="clsvgus-1" points="8.52 12.47 7.67 12.47 8.36 12.97 8.52 12.47"/>
            <polygon class="clsvgus-1" points="8.71 12.72 8.44 11.91 8.18 12.72 8.71 12.72"/>
            <polygon class="clsvgus-1" points="11.84 12.97 12.53 12.47 11.68 12.47 11.84 12.97"/>
            <polygon class="clsvgus-1" points="11.55 12.87 12.24 13.37 11.97 12.56 11.55 12.87"/>
            <polygon class="clsvgus-1" points="11.55 12.56 11.29 13.37 11.97 12.87 11.55 12.56"/>
            <polygon class="clsvgus-1" points="11.84 12.47 10.99 12.47 11.68 12.97 11.84 12.47"/>
            <polygon class="clsvgus-1" points="12.03 12.72 11.76 11.91 11.5 12.72 12.03 12.72"/>
            <polygon class="clsvgus-1" points="15.16 12.97 15.85 12.47 15 12.47 15.16 12.97"/>
            <polygon class="clsvgus-1" points="14.87 12.87 15.56 13.37 15.29 12.56 14.87 12.87"/>
            <polygon class="clsvgus-1" points="14.87 12.56 14.61 13.37 15.29 12.87 14.87 12.56"/>
            <polygon class="clsvgus-1" points="15.16 12.47 14.31 12.47 15 12.97 15.16 12.47"/>
            <polygon class="clsvgus-1" points="15.35 12.72 15.08 11.91 14.82 12.72 15.35 12.72"/>
            <polygon class="clsvgus-1" points="18.48 12.97 19.17 12.47 18.32 12.47 18.48 12.97"/>
            <polygon class="clsvgus-1" points="18.19 12.87 18.88 13.37 18.62 12.56 18.19 12.87"/>
            <polygon class="clsvgus-1" points="18.19 12.56 17.93 13.37 18.62 12.87 18.19 12.56"/>
            <polygon class="clsvgus-1" points="18.48 12.47 17.63 12.47 18.32 12.97 18.48 12.47"/>
            <polygon class="clsvgus-1" points="18.67 12.72 18.4 11.91 18.14 12.72 18.67 12.72"/>
        </g>
    </g>
</svg>