<svg xmlns="http://www.w3.org/2000/svg" viewBox="0 0 49.02 52.8"><title>Fichier 1</title><g id="Calque_2" data-name="Calque 2"><g id="Calque_1-2" data-name="Calque 1"><path d="M42.13,52.8H6.89a4,4,0,0,1-4-4V23.48a2.09,2.09,0,1,1,4.17,0V48.62H42V23.48a2.09,2.09,0,1,1,4.17,0V48.79a4,4,0,0,1-4,4Z"/><path d="M45,24.92H4a4,4,0,0,1-4-4V17.39a4,4,0,0,1,4-4H45a4,4,0,0,1,4,4v3.52a4,4,0,0,1-4,4ZM4.17,20.75H44.85v-3.2H4.17v3.2Z"/><path d="M20.16,51.5a1,1,0,0,1-1-1V15.34a1,1,0,0,1,2.09,0V50.46a1,1,0,0,1-1.05,1Z"/><path d="M28.86,51.5a1,1,0,0,1-1-1V15.34a1,1,0,0,1,2.08,0V50.46a1,1,0,0,1-1,1Z"/><path d="M20.45,16.51c-4.76,0-8-.83-9.63-2.47a8.27,8.27,0,0,1,0-11.69,8.48,8.48,0,0,1,11.71,0C25.47,5.29,25,13,24.89,14.51A2.08,2.08,0,0,1,23,16.42s-1.05.09-2.53.09ZM16.67,4.09a4.1,4.1,0,0,0-2.9,7c.57.58,2.66,1.24,6.68,1.24h.36c0-3-.39-6.18-1.24-7a4.08,4.08,0,0,0-2.9-1.21Z"/><path d="M28.57,16.51h0c-1.48,0-2.53-.09-2.53-.09a2.1,2.1,0,0,1-1.92-1.91C24,13,23.55,5.3,26.5,2.35a8.46,8.46,0,0,1,11.7,0A8.27,8.27,0,0,1,38.2,14c-1.63,1.64-4.87,2.47-9.63,2.47Zm-.36-4.18h.36c4,0,6.11-.66,6.68-1.24a4.09,4.09,0,0,0,0-5.79,4.2,4.2,0,0,0-5.8,0c-.92.92-1.27,4.22-1.24,7Z"/></g></g></svg>