<svg xmlns="http://www.w3.org/2000/svg" viewBox="0 0 50 50"><defs><style>.cls-1{fill:#fff;}.cls-2{fill:none;stroke:#8e949f;stroke-miterlimit:10;stroke-width:2px;}</style></defs><g id="Calque_2" data-name="Calque 2"><g id="Logo"><circle cx="25" cy="25" r="25"/><path class="cls-2" d="M20.92,36.56s1.51.68,1.51,1.84v.41A1.19,1.19,0,0,0,23.62,40h2.76a1.19,1.19,0,0,0,1.19-1.19V38.4c0-1.16,1.51-1.84,1.51-1.84l1.21-.5s1.55-.59,2.37.23l.29.29a1.2,1.2,0,0,0,1.68,0l1.95-1.95a1.2,1.2,0,0,0,0-1.68l-.29-.29c-.82-.82-.23-2.37-.23-2.37l.5-1.21s.68-1.51,1.84-1.51h.41A1.19,1.19,0,0,0,40,26.38V23.62a1.19,1.19,0,0,0-1.19-1.19H38.4c-1.16,0-1.84-1.51-1.84-1.51l-.5-1.21s-.59-1.55.23-2.37l.29-.29a1.2,1.2,0,0,0,0-1.68l-1.95-1.95a1.2,1.2,0,0,0-1.68,0l-.29.29c-.82.82-2.37.23-2.37.23l-1.21-.5s-1.51-.68-1.51-1.84v-.41A1.19,1.19,0,0,0,26.38,10H23.62a1.19,1.19,0,0,0-1.19,1.19v.41c0,1.16-1.51,1.84-1.51,1.84l-1.21.5s-1.55.59-2.37-.23l-.29-.29a1.2,1.2,0,0,0-1.68,0l-1.95,1.95a1.2,1.2,0,0,0,0,1.68l.29.29c.82.82.23,2.37.23,2.37l-.5,1.21s-.68,1.51-1.84,1.51h-.41A1.19,1.19,0,0,0,10,23.62v2.76a1.19,1.19,0,0,0,1.19,1.19h.41c1.16,0,1.84,1.51,1.84,1.51l.5,1.21s.59,1.55-.23,2.37l-.29.29a1.2,1.2,0,0,0,0,1.68l1.95,1.95a1.2,1.2,0,0,0,1.68,0l.29-.29c.82-.82,2.37-.23,2.37-.23Z"/><circle class="cls-2" cx="25" cy="25" r="4.69"/></g></g></svg>