<svg xmlns="http://www.w3.org/2000/svg" viewBox="0 0 17.16 12.76"><defs><style>.cls-1{fill:#f26b66;}</style></defs><title>icn-caisse</title><g id="Calque_2" data-name="Calque 2"><g id="Calque_1-2" data-name="Calque 1"><path d="M11.75,2.32l1.74,1.29A.37.37,0,0,0,14,3.48.38.38,0,0,0,13.87,3l-1.74-1.3a.38.38,0,0,0-.51.14A.38.38,0,0,0,11.75,2.32Zm2.64,3.37a.39.39,0,0,0-.13-.52L10.51,2.39,10,2a.37.37,0,0,0-.51.13.38.38,0,0,0,.14.51l3.74,2.79.51.38A.37.37,0,0,0,14.39,5.69Zm-12,1.24V5.83a.38.38,0,0,0-.75,0v1.1A.38.38,0,0,0,2.37,6.93Zm12.7-.59h0a.38.38,0,0,0,.75,0h0a.38.38,0,0,0-.75,0Zm1.8,6.19a.91.91,0,0,0,.28-.76V1.8a7.36,7.36,0,0,0,0-1.15A.9.9,0,0,0,16.19,0H.91A.88.88,0,0,0,0,.86v11a.87.87,0,0,0,.85.87H16.13A1.09,1.09,0,0,0,16.87,12.53ZM16.41.83h0C16.43.88,16.41.85,16.41.83ZM.9,12a.2.2,0,0,1-.13,0s0-.05,0,0v0a.08.08,0,0,0,0,0s0,0,0,0V.83c0,.05,0,0,0,0S.83.75.92.75H16.3a.21.21,0,0,1,.1.06s0,0,0,0V11.92s0,0,0,0a.17.17,0,0,1-.17.07Z"/></g></g></svg>