<svg xmlns="http://www.w3.org/2000/svg" viewBox="0 0 11.34 17.81"><defs><style>.cls-1{fill:#f26b66;}</style></defs><title>icn-borne</title><g id="Calque_2" data-name="Calque 2"><g id="Calque_1-2" data-name="Calque 1"><path d="M2.06,4.81,3.21,3.27a.34.34,0,0,0-.12-.46.34.34,0,0,0-.45.12L1.49,4.47a.33.33,0,1,0,.57.34Zm3-2.35a.35.35,0,0,0-.46.12L2.12,5.91l-.34.46a.33.33,0,0,0,.58.33L4.84,3.37l.33-.45A.34.34,0,0,0,5.06,2.46Zm1.1,10.69h-1a.34.34,0,0,0,0,.67h1A.34.34,0,0,0,6.16,13.15ZM5.64,1.86h0a.33.33,0,0,0,0-.66h0a.33.33,0,0,0,0,.66ZM11.13.26A.79.79,0,0,0,10.46,0H1.6a6.92,6.92,0,0,0-1,0A.81.81,0,0,0,0,.87V14.45a.78.78,0,0,0,.76.81h9.8a.79.79,0,0,0,.78-.76V.92A.94.94,0,0,0,11.13.26ZM.74.68s0,0,0,0S.76.67.74.68Zm9.93,13.77a.18.18,0,0,1,0,.13s-.05,0,0,0h-.05s0,0,0,0H.73s-.06-.07-.06-.15V.77a.26.26,0,0,1,0-.09s0,0,0,0h9.87c.06,0,.06.07.06.15Z"/><path d="M4.75,17.81V15.26H4.16v2.55Z"/><path d="M7.17,17.81V15.26H6.59v2.55Z"/></g></g></svg>