<svg xmlns="http://www.w3.org/2000/svg" viewBox="0 0 13.5 13.5"><defs><style>.cls-1{fill:#f26b66;}</style></defs><title>icn-warning</title><g id="Calque_2" data-name="Calque 2"><g id="Calque_1-2" data-name="Calque 1"><path d="M2,11.52A6.76,6.76,0,0,0,13.5,6.75,6.76,6.76,0,0,0,6.75,0,6.75,6.75,0,0,0,2,11.52ZM6.19,4.19a.76.76,0,0,1,.16-.53.57.57,0,0,1,.42-.17.54.54,0,0,1,.42.18.75.75,0,0,1,.16.52V7.53a.74.74,0,0,1-.16.52.6.6,0,0,1-.84,0,.69.69,0,0,1-.16-.49Zm.17,4.72a.57.57,0,0,1,.4-.15.64.64,0,0,1,.42.15.54.54,0,0,1,.17.42.52.52,0,0,1-.18.41.57.57,0,0,1-.41.16.65.65,0,0,1-.4-.14.52.52,0,0,1-.17-.43A.54.54,0,0,1,6.36,8.91Z"/></g></g></svg>