<svg xmlns="http://www.w3.org/2000/svg" viewBox="0 0 8.94 15.59"><defs><style>.cls-1{fill:#f26b66;}</style></defs><title>icn-pad</title><g id="Calque_2" data-name="Calque 2"><g id="Calque_1-2" data-name="Calque 1"><path d="M8.79.29A.63.63,0,0,0,8.26,0H.69A.76.76,0,0,0,0,.83V14.7c0,.36.14.79.53.87a2,2,0,0,0,.42,0H8.22a.75.75,0,0,0,.72-.82V.93A1.12,1.12,0,0,0,8.79.29Zm-.53,3.2V14.77a.32.32,0,0,1,0,.14H.71a.24.24,0,0,1,0-.1V.77S.71.69.7.7v0H8.23a.32.32,0,0,1,0,.14ZM2.08,4.71,3.25,3.14a.34.34,0,0,0-.12-.47.36.36,0,0,0-.47.13L1.49,4.37a.35.35,0,0,0,.12.47A.35.35,0,0,0,2.08,4.71ZM5.26,2.78a.34.34,0,0,0-.12-.46.35.35,0,0,0-.47.12L2.14,5.84,1.8,6.3a.34.34,0,0,0,.12.47.35.35,0,0,0,.46-.12l2.53-3.4Zm-1.43-1h.84a.34.34,0,0,0,0-.68H3.83A.34.34,0,0,0,3.83,1.77ZM5.15,13.44H3.67a.34.34,0,0,0,0,.68H5.15A.34.34,0,0,0,5.15,13.44ZM5.68,1.09h0a.34.34,0,0,0-.34.34.35.35,0,0,0,.34.34h0A.34.34,0,0,0,6,1.43.34.34,0,0,0,5.68,1.09Z"/></g></g></svg>