<svg xmlns="http://www.w3.org/2000/svg" viewBox="0 0 54 54">
    <title>Fichier 47</title>
    <g id="Calque_2" data-name="Calque 2">
        <g id="Calque_1-2" data-name="Calque 1">
            <path class="cls-1"
                  d="M40,24a1,1,0,0,0-1,1V51a1,1,0,0,1-1,1H3a1,1,0,0,1-1-1V15H12a3,3,0,0,0,3-3V2H38a1,1,0,0,1,1,1V5a1,1,0,0,0,2,0V3a3,3,0,0,0-3-3H15a6.6,6.6,0,0,0-4.12,1.71L1.71,10.88A6.6,6.6,0,0,0,0,15V51a3,3,0,0,0,3,3H38a3,3,0,0,0,3-3V25A1,1,0,0,0,40,24ZM12.29,3.12A3.42,3.42,0,0,1,13,2.61V12a1,1,0,0,1-1,1H2.61a3.42,3.42,0,0,1,.51-.71Z"/>
            <path class="cls-1"
                  d="M43.71,7.29a1,1,0,0,0-1.4,0l-22,21a1.05,1.05,0,0,0-.25.37l-3,8A1,1,0,0,0,18,38a.91.91,0,0,0,.45-.11l8-4a1.1,1.1,0,0,0,.26-.18l21-21a1,1,0,0,0,0-1.42ZM25.41,32.18,19.83,35l2-5.4L43,9.4,45.59,12Z"/>
            <path class="cls-1"
                  d="M49,1h-.41l-4,4L50,10.41l4-4V6A4.82,4.82,0,0,0,49,1Zm1,6.59L47.41,5l2-2A2.73,2.73,0,0,1,52,5.6Z"/>
        </g>
    </g>
</svg>