<svg xmlns="http://www.w3.org/2000/svg" viewBox="0 0 197.05 197.05"><title>Fichier 1</title><g id="Calque_2" data-name="Calque 2"><g id="izipass.pro"><path d="M179.05,155.31a98.54,98.54,0,1,0-21.13,21.83L194.81,192l-15.76-36.64ZM82.86,32.87A8.33,8.33,0,0,1,89,30.36a8.41,8.41,0,0,1,6.11,2.51,8.68,8.68,0,0,1,0,12.31A8.45,8.45,0,0,1,89,47.69,8.59,8.59,0,0,1,80.34,39,8.34,8.34,0,0,1,82.86,32.87ZM155,91.22a51.39,51.39,0,0,1-2.66,5,46.08,46.08,0,0,1-3.25,4.73,41.64,41.64,0,0,1-3.69,4.33,43.15,43.15,0,0,1-4.28,3.84,54.13,54.13,0,0,1-9.66,6.11,49.3,49.3,0,0,1-5.31,2.36c-.46.13-.91.28-1.33.44a13.46,13.46,0,0,1-1.43.45,1.59,1.59,0,0,0-.49.19,5.28,5.28,0,0,0-1.18.4,15.09,15.09,0,0,1-4.73.79c-.46-.07-.91-.12-1.33-.15a7.37,7.37,0,0,1-1.33-.25l-1.23-.44a4.26,4.26,0,0,1-1.13-.64,10.14,10.14,0,0,1-2-1.68,4.36,4.36,0,0,1-.79-1l-.59-1c-.14-.32-.27-.67-.4-1s-.26-.74-.39-1.13a4,4,0,0,1-.25-1,10.47,10.47,0,0,0-.14-1,14.36,14.36,0,0,1,0-4.14.83.83,0,0,1,.34-.73,1.37,1.37,0,0,1,.84-.25c.59.13.92.43,1,.89s.13.62.2.88.13.56.2.89a6.07,6.07,0,0,1,.29.89,3.57,3.57,0,0,0,.3.78c.13.33.24.61.34.84s.21.48.35.74a1.38,1.38,0,0,1,.24.29,1.27,1.27,0,0,0,.25.3,1.79,1.79,0,0,0,.2.34,3.69,3.69,0,0,1,.19.35,3.34,3.34,0,0,1,.54.44,3.32,3.32,0,0,0,.55.44,2.44,2.44,0,0,0,1.08.6,4.55,4.55,0,0,0,2.26,0,5.77,5.77,0,0,0,2.56-1,9,9,0,0,0,1.29-.89l1.18-1a20.46,20.46,0,0,0,2.21-2.41c.69-.89,1.33-1.79,1.92-2.71s1.14-2,1.63-3l1.52-3c.46-1,.91-2.1,1.33-3.15s.84-2.1,1.23-3.15a8.37,8.37,0,0,1,.3-.79,6.92,6.92,0,0,1,.3-.79,1.79,1.79,0,0,1,.19-.79,1.56,1.56,0,0,0,.15-.39,1.56,1.56,0,0,1,.15-.39A6,6,0,0,1,133,89c.07-.26.11-.51.15-.74a3.61,3.61,0,0,1,.24-.83,29.18,29.18,0,0,0,.89-6.11,10.53,10.53,0,0,0,0-2.86,8.12,8.12,0,0,0-.1-1.32,7.22,7.22,0,0,0-.29-1.24c-.14-.52-.23-.88-.3-1.08a1.55,1.55,0,0,1-.24-.54.93.93,0,0,0-.25-.44A3.15,3.15,0,0,0,132,72.51a6.43,6.43,0,0,0-.79-.5.62.62,0,0,1-.3-.05.71.71,0,0,0-.29,0h-.1v-.1h-.2a3.89,3.89,0,0,0-1,.1,4,4,0,0,1-.64.14,1.68,1.68,0,0,0-.64.25,7.48,7.48,0,0,0-1.38.79l-1.48.88a13.49,13.49,0,0,0-1.33,1.09l-1.33,1.18-1.28,1.28a4.22,4.22,0,0,1-.64.69,4.25,4.25,0,0,0-.64.69c-.39.46-.79.9-1.18,1.33a17.77,17.77,0,0,0-1.18,1.42l-2.36,3a15.82,15.82,0,0,1-1.09,1.53A17.5,17.5,0,0,0,113,87.67c-.72,1-1.41,2-2.07,3s-1.35,2.11-2.07,3.16q-.5.78-.93,1.62c-.3.56-.61,1.1-.94,1.63a5,5,0,0,0-.34.59c-.1.19-.22.39-.35.59-.46,2.16-1,4.35-1.48,6.55s-1,4.38-1.57,6.55q-1.38,5.41-2.76,10.78t-3,10.78l-.79,2.76c-.13.46-.26.9-.39,1.33s-.27.87-.4,1.33c-.33.92-.62,1.82-.88,2.71s-.56,1.78-.89,2.71c-.13.45-.28.9-.44,1.33s-.35.86-.55,1.33a7.88,7.88,0,0,1-.49,1.42,8.82,8.82,0,0,0-.49,1.33c-.2.53-.39,1-.59,1.43s-.4.87-.59,1.33l-1.18,2.66a41.75,41.75,0,0,1-3.16,5.22c-.32.39-.64.8-.93,1.23s-.61.84-.94,1.23c-.19.2-.37.39-.54.59a7.23,7.23,0,0,1-.54.59l-1.18,1.18a15.67,15.67,0,0,1-2.76,2.17c-.26.13-.52.28-.79.44a5.56,5.56,0,0,1-.88.45,7.87,7.87,0,0,1-1.87.69,2.94,2.94,0,0,1-1.09.19H73.55a.89.89,0,0,0-.35-.1.82.82,0,0,1-.34-.09,3.64,3.64,0,0,1-1.38-.5,2.35,2.35,0,0,1-1.08-.88,1.27,1.27,0,0,1-.45-.5,1.78,1.78,0,0,0-.34-.49,6.31,6.31,0,0,1-.69-2,2.45,2.45,0,0,1-.2-.88,3,3,0,0,0-.1-.79v-1.58c0-.52,0-1,0-1.52s.09-1,.15-1.53a8.63,8.63,0,0,0,.25-1.43,8.52,8.52,0,0,1,.24-1.43l.3-1.47.1-.4v-.29l.19-.69a110.19,110.19,0,0,1,3.25-10.83q1-2.67,2-5.32t2.17-5.22c.2-.46.38-.91.54-1.33s.35-.87.54-1.33l.2-.3.2-.29a4.5,4.5,0,0,1,.29-.69,4.77,4.77,0,0,1,.69-1.28c.2-.46.41-.91.64-1.33s.45-.84.64-1.23l.74-1.28c.23-.4.44-.79.64-1.19.46-.85.92-1.69,1.38-2.5s.92-1.63,1.38-2.42l1.33-2.46q.65-1.18,1.23-2.46c.76-1.46,1.48-2.92,2.19-4.38-.43.67-.86,1.34-1.3,2s-1.07,1.56-1.63,2.32-1.13,1.49-1.72,2.21c-.33.4-.64.79-.94,1.19a9.76,9.76,0,0,1-.93,1.08l-1.09,1.08a14.78,14.78,0,0,1-1.18,1.09,22.1,22.1,0,0,1-2.66,2,7.68,7.68,0,0,0-.78.44,6.15,6.15,0,0,1-.89.44,9.76,9.76,0,0,1-2.17.69h-.29l-.3.1h-.49a5,5,0,0,1-1.08.1,6.7,6.7,0,0,1-2.37-.4l-1.23-.39a4.64,4.64,0,0,1-1.23-.59,10.41,10.41,0,0,1-2-1.67,7.76,7.76,0,0,1-1.38-2,15.2,15.2,0,0,1-1.43-3.85c-.09-.59-.21-1.14-.34-1.67a8,8,0,0,1-.2-1.72,12.41,12.41,0,0,0-.1-1.63v-3a47.31,47.31,0,0,1,.59-5.91c.14-.92.29-1.85.45-2.81s.31-1.88.44-2.8.4-1.86.59-2.81.43-1.89.69-2.81.41-1.82.64-2.7.48-1.79.74-2.71.52-1.81.79-2.66.52-1.74.79-2.66l1.77-5.32.88-2.66.5-1.28a2.37,2.37,0,0,0,.24-.69,3.1,3.1,0,0,1,.25-.69,6.77,6.77,0,0,1,3.69-3.79,6.57,6.57,0,0,1,5.27,0,7,7,0,0,1,3.84,3.65,6.3,6.3,0,0,1,.1,5.22.37.37,0,0,0-.1.29h-.1L83.79,72l-.49,1.18c-.2.4-.38.79-.54,1.19s-.32.78-.45,1.18c-.33.85-.67,1.67-1,2.46s-.71,1.61-1,2.46-.64,1.6-.94,2.42-.61,1.65-.94,2.51-.62,1.59-.88,2.41-.56,1.66-.89,2.51a19.06,19.06,0,0,0-.83,2.41c-.24.83-.51,1.66-.84,2.51s-.49,1.6-.69,2.42-.39,1.66-.59,2.51a18.2,18.2,0,0,0-.64,2.41c-.17.82-.31,1.63-.45,2.41-.06.4-.11.79-.14,1.19s-.09.75-.15,1.08,0,.77,0,1.13,0,.71,0,1a5.17,5.17,0,0,1,.1.93,3.22,3.22,0,0,0,.1.84.56.56,0,0,0,0,.29.53.53,0,0,1,0,.2.92.92,0,0,1,.09.39v.2a.21.21,0,0,1,.15,0s.12,0,.25,0h.2c.06,0,.09,0,.09,0s0,0,.1,0h.1a1,1,0,0,0,.49-.1,2.88,2.88,0,0,0,.79-.2,12.18,12.18,0,0,0,1.77-1,14.42,14.42,0,0,0,1.87-1.38l1-.79a11.27,11.27,0,0,0,1-.88c1.19-1.12,2.4-2.33,3.65-3.65q.89-1,1.77-1.92c.59-.62,1.18-1.29,1.77-2s1.23-1.64,2.12-2.75,1.59-2,2.12-2.76a5.74,5.74,0,0,0,.83-1,6.12,6.12,0,0,1,.84-1l.62-.85q.57-2.64,1.15-5.26l1.28-5.41,1.19-5.32L99,70.83l1.18-5.22.1-.19A5.87,5.87,0,0,1,107.43,61,5.56,5.56,0,0,1,111,63.35a6.13,6.13,0,0,1,1.08,4.13,2.81,2.81,0,0,1-.09.79l-.1.69-.2,1.48c-.07.46-.13.92-.2,1.38s-.13.92-.19,1.37l-.5,2.76-.49,2.76c-.06.46-.13.92-.2,1.38a9.69,9.69,0,0,1-.29,1.38l-.49,2.75c-.14.66-.27,1.3-.4,1.93s-.26,1.26-.39,1.92a10.69,10.69,0,0,0,.69-1.23,8,8,0,0,1,.69-1.24c.33-.52.65-1.06,1-1.62s.66-1.13,1-1.73A37.64,37.64,0,0,1,113.93,79c.32-.53.67-1.07,1-1.63s.74-1.1,1.13-1.62q.3-.49.54-.84a6.57,6.57,0,0,1,.64-.74,7.11,7.11,0,0,1,.59-.84c.2-.23.4-.47.6-.74a25.59,25.59,0,0,1,2.65-3.15c.53-.52,1-1,1.58-1.47s1.12-1,1.77-1.48c.33-.2.66-.41,1-.64a8.55,8.55,0,0,1,1.08-.64,10.53,10.53,0,0,1,2.66-.89.9.9,0,0,1,.34-.1.75.75,0,0,0,.35-.1h.79a3.25,3.25,0,0,1,.74-.09h.64l1.42.19c.43.07.91.17,1.43.3a12.6,12.6,0,0,1,2.76,1.18,13.57,13.57,0,0,1,2.26,1.67,7.86,7.86,0,0,1,1,1,11.37,11.37,0,0,0,.93,1c.27.4.51.78.74,1.14a10.32,10.32,0,0,1,.64,1.13A20.62,20.62,0,0,1,145,76.35c.2.78.37,1.57.5,2.36s.23,1.58.29,2.36a26.36,26.36,0,0,1,0,4.53,10.41,10.41,0,0,1-.05,1.14c0,.36-.08.73-.14,1.13s-.14.69-.2,1.08-.13.76-.2,1.09a3.52,3.52,0,0,0-.24,1,5.5,5.5,0,0,1-.25,1.13l-.59,2.07a4.1,4.1,0,0,0-.2.49,2.6,2.6,0,0,1-.2.49c-.13.4-.26.76-.39,1.09-.07.13-.13.28-.2.44s-.13.35-.19.54a3.79,3.79,0,0,0-.2.45c-.07.16-.13.34-.2.54q-.89,1.88-1.92,3.69a31.11,31.11,0,0,1-2.31,3.5c-.53.78-1,1.51-1.58,2.16l2.07-1.47a44.58,44.58,0,0,0,7.68-7.29,46.21,46.21,0,0,0,5.81-9,1.56,1.56,0,0,1,.89-.69,1.54,1.54,0,0,1,1.08,0A1.28,1.28,0,0,1,155,91.22Z"/><path d="M85.51,127.41a10.42,10.42,0,0,1-.83,1.13,2,2,0,0,0-.35.49,6.08,6.08,0,0,1-.34.6,1,1,0,0,0-.4.49l-.19.29-.2.3a6.62,6.62,0,0,0-.69,1.08,12,12,0,0,1-.69,1.18q-1.38,2.37-2.61,4.78c-.82,1.61-1.59,3.26-2.31,5s-1.38,3.4-2,5.07-1.15,3.4-1.68,5.17l-.1.6-.09.39-.1.29q-.19.8-.3,1.29t-.15,1.23c0,.42-.05.87-.05,1.32a6.06,6.06,0,0,0,0,1.34c0,.42.08.83.14,1.23a5.58,5.58,0,0,0,.2,1.18,7.67,7.67,0,0,0,.39,1,1.51,1.51,0,0,0,.4.59h.2v-.1c0-.06,0-.09-.1-.09l.1-.1h.09a2.1,2.1,0,0,0,.5-.4,4.13,4.13,0,0,0,.59-.49,8.74,8.74,0,0,0,.59-.69,8.41,8.41,0,0,0,1.08-1.77,23.79,23.79,0,0,0,1-2.17c.29-.72.6-1.47.93-2.26l1.77-4.73.89-2.46.39-1.28a1.38,1.38,0,0,0,.2-.59l.2-.59c.13-.4.24-.81.34-1.23s.22-.88.35-1.33.24-.81.34-1.24.22-.87.35-1.33c.19-.85.41-1.7.64-2.56s.44-1.73.64-2.65l.59-2.66.59-2.66c.13-.72.28-1.43.44-2.12s.35-1.4.54-2.12a3.3,3.3,0,0,0-.49.59A6.18,6.18,0,0,0,85.51,127.41Z"/></g></g></svg>