<?xml version="1.0" encoding="utf-8"?>
<!-- Generator: Adobe Illustrator 20.1.0, SVG Export Plug-In . SVG Version: 6.00 Build 0)  -->
<svg version="1.1" id="Calque_1" xmlns="http://www.w3.org/2000/svg" xmlns:xlink="http://www.w3.org/1999/xlink" x="0px" y="0px"
	 viewBox="0 0 841.9 1190.6" style="enable-background:new 0 0 841.9 1190.6;" xml:space="preserve">
<g>
	<path d="M241.2,454.8c-20.6-30.2-42.1-42.7-59.5-42.5c-11.7,0.1-24,5-37.3,18.2c-12.8,12.9-17.3,24.2-17.3,34.7
		c-0.3,16.2,12.6,37,44,57.1c26.1,16.7,63.8,32,111.3,43.6h4C274.7,517.9,258.7,480.4,241.2,454.8z"/>
	<path d="M473.9,494c0.2-9.3-5.9-23-22.4-39.5C435.1,438,421.4,431.9,412,432c-10.8-0.1-24,7.6-38.9,34c-12.2,21.9-23.9,55.3-34,100
		h5c42.6-9.9,74.7-21.2,95.9-33C466.3,518.2,474.1,505,473.9,494z"/>
	<path d="M234.4,845.3c6.5,6,6.9,16.1,0.9,22.5c-3.2,3.4-7.4,5.1-11.7,5.1c-3.9,0-7.7-1.4-10.8-4.2c-16.8-16-21.7-39.7-21.9-65.8
		c0.7-62.2,30.7-147.2,82.7-200.9H29.9v256.1v78.3c0,21.8,17.9,39.7,39.7,39.7h78.3h147.4V625c-43.5,46.3-73.2,126.2-72.5,178
		C222.6,824.9,228.3,840.2,234.4,845.3z"/>
	<path d="M446,768.1c3.1,8.3-1.1,17.4-9.4,20.5c-1.8,0.7-3.7,1-5.6,1c-6.5,0-12.6-4-14.9-10.4c-33-88.5-63.8-133.3-84.6-155.6v352.6
		h364.9h78.3c21.8,0,39.7-17.9,39.7-39.7v-78.3V602.1H355C379.5,628.5,412.2,677.5,446,768.1z"/>
	<path d="M774.7,191.8h-117H331.5v288.3c4.3-10.9,8.9-20.9,13.7-29.6c16.7-30.4,39-50.2,66.9-50.4c22.3,0.2,42.6,12.4,62,31.8
		c19.3,19.4,31.6,39.7,31.8,62c-0.2,27.9-20,50.2-50.4,66.9c-3.2,1.8-6.6,3.4-10,5.1h368.9V348.5v-117
		C814.4,209.7,796.5,191.8,774.7,191.8z"/>
	<path d="M69.6,191.8c-21.8,0-39.7,17.9-39.7,39.7v78.3v256.1h154.5c-11.1-5.3-21.3-10.9-30.5-16.7c-35.6-22.8-58.5-51-58.8-84
		c0-20.6,9.7-40.4,26.7-57.2c17.5-17.6,38.3-27.6,59.9-27.5c32.8,0.2,62.2,21.7,85.8,56.4c10.2,14.9,19.4,32.7,27.8,52.8V191.8
		H147.9H69.6z"/>
</g>
</svg>
