<svg xmlns="http://www.w3.org/2000/svg" viewBox="0 0 23.54 23.55"><title>pending</title><g id="Calque_2" data-name="Calque 2"><g id="Calque_1-2" data-name="Calque 1"><path d="M11.77,23.55A11.78,11.78,0,0,1,3.44,3.45,11.78,11.78,0,0,1,20.1,20.1a11.69,11.69,0,0,1-8.33,3.45ZM11.77,2A9.78,9.78,0,0,0,4.86,18.69a9.79,9.79,0,0,0,13.83,0A9.78,9.78,0,0,0,11.77,2Z"/><path d="M5.89,10.21a1.59,1.59,0,0,1,1.57,1.58,1.56,1.56,0,0,1-1.57,1.55,1.54,1.54,0,0,1-1.55-1.55A1.57,1.57,0,0,1,5.89,10.21Z"/><path d="M11.76,10.21a1.59,1.59,0,0,1,1.57,1.58,1.56,1.56,0,0,1-1.57,1.55,1.54,1.54,0,0,1-1.55-1.55A1.57,1.57,0,0,1,11.76,10.21Z"/><path d="M17.63,10.21a1.59,1.59,0,0,1,1.57,1.58,1.56,1.56,0,0,1-1.57,1.55,1.54,1.54,0,0,1-1.55-1.55A1.57,1.57,0,0,1,17.63,10.21Z"/></g></g></svg>