<svg xmlns="http://www.w3.org/2000/svg" viewBox="0 0 41.18 53.98">
    <title>Fichier 44</title>
    <g id="Calque_2" data-name="Calque 2">
        <g id="Calque_1-2" data-name="Calque 1">
            <path class="cls-1"
                  d="M16.63,13.82a6.91,6.91,0,1,1,6.91-6.91,6.92,6.92,0,0,1-6.91,6.91Zm0-9a2.1,2.1,0,1,0,2.1,2.1,2.11,2.11,0,0,0-2.1-2.1Z"/>
            <path class="cls-1"
                  d="M16.63,54A16.65,16.65,0,0,1,0,37.35,16.48,16.48,0,0,1,3.46,27.2a2.4,2.4,0,1,1,3.8,2.94A11.82,11.82,0,1,0,28.05,40.41a12.05,12.05,0,0,0,.39-3.06,2.41,2.41,0,0,1,4.81,0,17.23,17.23,0,0,1-.55,4.29A16.65,16.65,0,0,1,16.63,54Z"/>
            <path class="cls-1"
                  d="M16.11,36.63h-1c-3.36,0-6.09-3.13-6.09-7V22.24c0-3.85,2.73-7,6.09-7h1c3.36,0,6.09,3.13,6.09,7v7.41c0,3.85-2.73,7-6.09,7Zm-1-17c-.83,0-1.75,1.08-1.75,2.64v7.41c0,1.55.92,2.64,1.75,2.64h1c.83,0,1.75-1.09,1.75-2.64V22.24c0-1.56-.92-2.64-1.75-2.64Z"/>
            <path class="cls-1"
                  d="M38.78,51.38a2.42,2.42,0,0,1-2.09-1.2L29,36.86H16.74a2.41,2.41,0,1,1,0-4.81H30.36a2.41,2.41,0,0,1,2.08,1.2l8.41,14.52A2.4,2.4,0,0,1,40,51.06a2.37,2.37,0,0,1-1.2.32Z"/>
            <path class="cls-1" d="M28.76,30.05h-12a2.41,2.41,0,1,1,0-4.81h12a2.41,2.41,0,0,1,0,4.81Z"/>
        </g>
    </g>
</svg>