<svg xmlns="http://www.w3.org/2000/svg" viewBox="0 0 54 54"><title>Fichier 2</title><g id="Calque_2" data-name="Calque 2"><g id="Calque_1-2" data-name="Calque 1"><path d="M16,28.24a1.91,1.91,0,1,1-1.91-1.91A1.92,1.92,0,0,1,16,28.24Z"/><path d="M35.28,25a2,2,0,0,1-1-.24,21.35,21.35,0,0,0-11.9-2.39,2,2,0,0,1-2.14-1.82,2,2,0,0,1,1.82-2.15,25.32,25.32,0,0,1,14.14,2.87,2,2,0,0,1-1,3.73Z"/><path d="M30.37,22.76A11.38,11.38,0,1,1,41.75,11.38,11.39,11.39,0,0,1,30.37,22.76Zm0-18.59a7.21,7.21,0,1,0,7.2,7.21,7.23,7.23,0,0,0-7.2-7.21Z"/><path d="M30.37,16.85a5.47,5.47,0,1,1,5.47-5.47,5.48,5.48,0,0,1-5.47,5.47Zm0-8.85a3.39,3.39,0,1,0,3.38,3.38A3.39,3.39,0,0,0,30.37,8Z"/><path d="M41.94,44.39v4.94A4.68,4.68,0,0,1,37.27,54H34.14a4.68,4.68,0,0,1-4.57-3.7,27.23,27.23,0,0,1-7.86.12A4.68,4.68,0,0,1,17.17,54H14.05a4.67,4.67,0,0,1-4.67-4.67V45.19a18,18,0,0,1-4.91-6.38A4.67,4.67,0,0,1,0,34.15V31a4.67,4.67,0,0,1,4.47-4.66A18.11,18.11,0,0,1,9.38,20V16.79a2,2,0,0,1,1-1.76,6.41,6.41,0,0,1,7,.64,26.21,26.21,0,0,1,5.06-1l.4,4a21.73,21.73,0,0,0-5.31,1.18,2,2,0,0,1-2.23-.63,2.43,2.43,0,0,0-2-.94v2.7a2,2,0,0,1-.79,1.58A13.94,13.94,0,0,0,7.71,29a2,2,0,0,1-1.88,1.34H4.67A.69.69,0,0,0,4,31v3.13a.69.69,0,0,0,.69.69H5.83a2,2,0,0,1,1.88,1.35,14,14,0,0,0,4.86,6.46,2,2,0,0,1,.79,1.58v5.1a.69.69,0,0,0,.69.69h3.12a.69.69,0,0,0,.69-.69V48.08a2,2,0,0,1,.75-1.55,2,2,0,0,1,1.67-.4A22.94,22.94,0,0,0,31,45.94a2,2,0,0,1,2.49,1.92v1.47a.69.69,0,0,0,.69.69h3.13a.69.69,0,0,0,.69-.69V43.51A2,2,0,0,1,38.65,42a12.48,12.48,0,0,0,4.67-9.41,2.35,2.35,0,0,1,.42-1.32,2,2,0,0,1-.7-1.12c-.87-3.86-3.84-7.31-8.15-9.45l1.76-3.56a19.87,19.87,0,0,1,8.68,8,2,2,0,0,1,3.41-1.46,6.43,6.43,0,0,1,1.83,4.5"/></g></g></svg>