<svg xmlns="http://www.w3.org/2000/svg" viewBox="0 0 25 25"><defs><style>.cls-1{}</style></defs><title>info</title><g id="Calque_2" data-name="Calque 2"><g id="Calque_1-2" data-name="Calque 1"><path d="M21,0H0A25,25,0,0,0,25,25V4A4,4,0,0,0,21,0ZM15.48,4.5a1.39,1.39,0,0,1,1.44,1.42A1.44,1.44,0,1,1,15.48,4.5Zm2.34,12a37.36,37.36,0,0,0-4.49,0V16l.39-.07c.64-.09.68-.12.68-2.19v-1.6c0-2.64,0-2.75-.79-2.86l-.28,0V8.63a13,13,0,0,0,3.33-.29l.15.13c0,.85-.07,2.35-.07,3.16v2.06c0,2,0,2.05.75,2.19l.33.07Z"/></g></g></svg>