<?xml version="1.0" encoding="utf-8"?>
<!-- Generator: Adobe Illustrator 20.1.0, SVG Export Plug-In . SVG Version: 6.00 Build 0)  -->
<svg version="1.1" id="Calque_1" xmlns="http://www.w3.org/2000/svg" xmlns:xlink="http://www.w3.org/1999/xlink" x="0px" y="0px"
	 viewBox="0 0 841.9 1190.6" style="enable-background:new 0 0 841.9 1190.6;" xml:space="preserve">
<title>035-Discount tag</title>
<desc>Created with Sketch.</desc>
<g>
	<path d="M816.1,680.4C705.7,629,718.5,526,729.8,435.1c7.5-60.5,14-112.8-17.6-141.4c0,0-0.1,0-0.1-0.1c0,0,0-0.1-0.1-0.1
		c-38-33.2-80.6-14.6-97.9-0.2c-0.1,0-0.1,0.1-0.1,0.2c-0.1,0-0.1,0.1-0.2,0.1L557,344.1c-0.4-0.1-0.8-0.3-1.3-0.3H341
		c-1.7,0-3.5,0.4-5.1,1c-1.6,0.7-3.1,1.7-4.4,2.9L23.1,656.3c-5.2,5.2-5.2,13.7,0,19l214.6,214.6c2.6,2.6,6,3.9,9.5,3.9
		s6.9-1.3,9.5-3.9l308.4-308.4c1.2-1.2,2.2-2.7,2.9-4.4c0.7-1.6,1-3.4,1-5.1V369.3l62.4-55.5c3.9-3.2,33.6-25.4,62.7-0.2
		c21.3,19.3,15.6,65.1,9,118.2c-11.2,90-26.6,213.3,101.6,272.9c1.8,0.8,3.8,1.2,5.6,1.2c5.1,0,9.9-2.9,12.2-7.8
		C825.7,691.5,822.8,683.6,816.1,680.4z M435.9,525.2c-28,0-50.8-22.9-50.8-50.8c0-27.9,22.9-50.8,50.8-50.8
		c27.9,0,50.8,22.9,50.8,50.8C486.6,502.3,463.9,525.2,435.9,525.2z"/>
	<path d="M421.3,490.3c21.2,16.3,45.3-7.8,29-29C429.1,445,405,469.1,421.3,490.3z"/>
</g>
</svg>
