<svg xmlns="http://www.w3.org/2000/svg" viewBox="0 0 54 53.97"><title>Fichier 51</title><g id="Calque_2" data-name="Calque 2"><g id="Calque_1-2" data-name="Calque 1"><path class="cls-1" d="M4.4,14.07a.94.94,0,0,0,.53.16,1,1,0,0,0,.85-.47A26.27,26.27,0,0,1,7.44,11.4a1,1,0,0,0-1.56-1.25,26.63,26.63,0,0,0-1.8,2.55A1,1,0,0,0,4.4,14.07Z"/><path class="cls-1" d="M9.68,8.58a1,1,0,0,0,.67-.25,26.08,26.08,0,0,1,2.25-1.8A1,1,0,0,0,11.45,4.9,27,27,0,0,0,9,6.84a1,1,0,0,0,.67,1.74Z"/><path class="cls-1" d="M1,28c.55,0,1-.3,1-.85V27a24.68,24.68,0,0,1,.13-2.59,1,1,0,0,0-2-.23C.05,25.06,0,26,0,26.9v.24c0,.55.45.83,1,.83Z"/><path d="M1.68,20.94A1.24,1.24,0,0,0,2,21a1,1,0,0,0,1-.73,23.56,23.56,0,0,1,.93-2.72A1,1,0,1,0,2,16.76a27.72,27.72,0,0,0-1,2.95A1,1,0,0,0,1.68,20.94Z"/><path class="cls-1" d="M3.08,34.28a26.56,26.56,0,0,1-.68-2.8,1,1,0,1,0-2,.36,25.55,25.55,0,0,0,.73,3,1,1,0,0,0,1.25.67A1,1,0,0,0,3.08,34.28Z"/><path class="cls-1" d="M15.81,4.5a.94.94,0,0,0,.43-.1,26.7,26.7,0,0,1,2.67-1.09,1,1,0,1,0-.65-1.89A26.4,26.4,0,0,0,15.38,2.6a1,1,0,0,0,.43,1.9Z"/><path class="cls-1" d="M49.21,15.48a1,1,0,0,0,.89.54,1,1,0,0,0,.46-.11A1,1,0,0,0,51,14.56a26.83,26.83,0,0,0-1.59-2.67A1,1,0,0,0,48,11.62,1,1,0,0,0,47.74,13,26.78,26.78,0,0,1,49.21,15.48Z"/><path class="cls-1" d="M50.83,19.38a24.26,24.26,0,0,1,.71,2.79,1,1,0,0,0,1,.81h.19a1,1,0,0,0,.79-1.18,24.15,24.15,0,0,0-.77-3,1,1,0,1,0-1.9.6Z"/><path class="cls-1" d="M22.85,2.3H23A25.13,25.13,0,0,1,25.88,2a1,1,0,0,0,.95-1,1,1,0,0,0-1-1,26.91,26.91,0,0,0-3.1.32,1,1,0,0,0-.83,1.14A1,1,0,0,0,22.85,2.3Z"/><path class="cls-1" d="M30.1,2.16a26.8,26.8,0,0,1,2.84.52l.23,0a1,1,0,0,0,.24-2A28.42,28.42,0,0,0,30.35.18a1,1,0,0,0-1.12.87A1,1,0,0,0,30.1,2.16Z"/><path class="cls-1" d="M36.94,4a23.79,23.79,0,0,1,2.57,1.3,1,1,0,0,0,.51.13,1,1,0,0,0,.5-1.86,29,29,0,0,0-2.78-1.41A1,1,0,0,0,36.94,4Z"/><path class="cls-1" d="M46.53,8.34a26.86,26.86,0,0,0-2.27-2.13A1,1,0,0,0,43,7.75a24.48,24.48,0,0,1,2.11,2,1,1,0,0,0,1.41,0A1,1,0,0,0,46.53,8.34Z"/><path class="cls-1" d="M49.45,40.14a1,1,0,0,0-1.39.3,26.26,26.26,0,0,1-1.69,2.34,1,1,0,0,0,.77,1.63,1,1,0,0,0,.78-.37,26.86,26.86,0,0,0,1.83-2.51A1,1,0,0,0,49.45,40.14Z"/><path class="cls-1" d="M43.43,45.82a25.51,25.51,0,0,1-2.27,1.76A1,1,0,0,0,40.9,49a1,1,0,0,0,.82.44,1,1,0,0,0,.57-.18,26.16,26.16,0,0,0,2.46-1.91,1,1,0,1,0-1.32-1.5Z"/><path class="cls-1" d="M54,26.33a1,1,0,1,0-2,.05c0,.2,0,.4,0,.59a27.34,27.34,0,0,1-.16,2.88A1,1,0,0,0,52.71,31h.12a1,1,0,0,0,1-.89A26.77,26.77,0,0,0,54,27C54,26.76,54,26.54,54,26.33Z"/><path class="cls-1" d="M52.24,33.31A1,1,0,0,0,51,34a24.47,24.47,0,0,1-1,2.72A1,1,0,0,0,50.56,38a1.09,1.09,0,0,0,.39.08,1,1,0,0,0,.93-.61,28.53,28.53,0,0,0,1-2.94A1,1,0,0,0,52.24,33.31Z"/><path class="cls-1" d="M37.49,49.68a25.83,25.83,0,0,1-2.69,1,1,1,0,0,0,.32,2,.87.87,0,0,0,.31,0,25.65,25.65,0,0,0,2.9-1.14,1,1,0,0,0,.48-1.33A1,1,0,0,0,37.49,49.68Z"/><path class="cls-1" d="M16.79,49.8a23.85,23.85,0,0,1-2.56-1.33,1,1,0,0,0-1,1.72A26.71,26.71,0,0,0,16,51.62a1,1,0,0,0,.41.09,1,1,0,0,0,.41-1.91Z"/><path class="cls-1" d="M8.71,44a1,1,0,1,0-1.46,1.36A25.39,25.39,0,0,0,9.5,47.53a1,1,0,0,0,.64.24,1,1,0,0,0,.76-.35A1,1,0,0,0,10.79,46,24.44,24.44,0,0,1,8.71,44Z"/><path class="cls-1" d="M4.66,38.2a1,1,0,0,0-1.35-.44,1,1,0,0,0-.44,1.34,25.76,25.76,0,0,0,1.56,2.69,1,1,0,0,0,.83.45,1,1,0,0,0,.84-1.55A23.67,23.67,0,0,1,4.66,38.2Z"/><path class="cls-1" d="M23.6,51.74a22.8,22.8,0,0,1-2.83-.55,1,1,0,0,0-.49,1.94,26.1,26.1,0,0,0,3,.6h.14a1,1,0,0,0,.13-2Z"/><path class="cls-1" d="M30.7,51.7a25.26,25.26,0,0,1-2.88.26,1,1,0,0,0,0,2h0a21.52,21.52,0,0,0,3.1-.28,1,1,0,0,0-.29-2Z"/><path class="cls-1" d="M29.29,39.27a1,1,0,0,0,0,1.41,1,1,0,0,0,1.42,0l13-13a1,1,0,0,0,0-1.41l-13-13a1,1,0,0,0-1.42,0,1,1,0,0,0,0,1.41L40.59,26H12a1,1,0,0,0,0,2H40.59Z"/></g></g></svg>