<svg xmlns="http://www.w3.org/2000/svg" viewBox="0 0 18.84 50"><defs><style>.cls-1{fill:#f9c96f;}</style></defs><title>actif</title><g id="Calque_2" data-name="Calque 2"><g id="Layer_1" data-name="Layer 1"><path d="M0,50V0A9.57,9.57,0,0,0,2.49,4.82a6,6,0,0,0,2.64,1.6A19.1,19.1,0,0,1,18.71,22.56,19.35,19.35,0,0,1,8,42.52a10.3,10.3,0,0,1-2.72,1A5.93,5.93,0,0,0,1.82,46,9.74,9.74,0,0,0,0,50ZM6.38,17.61a1.07,1.07,0,0,0-1,.63,1.17,1.17,0,0,0,.3,1.4c1.22,1.26,2.43,2.53,3.67,3.77.36.35.38.55,0,.92-1.24,1.23-2.45,2.51-3.66,3.77a1.14,1.14,0,1,0,1.6,1.58q2.4-2.47,4.77-5a1.1,1.1,0,0,0,0-1.68c-1.59-1.68-3.21-3.34-4.81-5A1.24,1.24,0,0,0,6.38,17.61Z"/></g></g></svg>