<svg xmlns="http://www.w3.org/2000/svg" viewBox="0 0 54 54">
    <title>Fichier 46</title>
    <g id="Calque_2" data-name="Calque 2">
        <g id="Calque_1-2" data-name="Calque 1">
            <path class="cls-1"
                  d="M28,14A17,17,0,1,0,45,31,17,17,0,0,0,28,14Zm0,32A15,15,0,1,1,43,31,15,15,0,0,1,28,46Z"/>
            <path class="cls-1"
                  d="M35.79,21.87a1,1,0,1,0-1.3,1.52A10,10,0,1,1,20.93,38.07a1,1,0,1,0-1.42,1.42A12,12,0,1,0,35.79,21.87Z"/>
            <path class="cls-1" d="M28,21a1,1,0,0,0,0-2A12,12,0,0,0,16,31a1,1,0,0,0,2,0A10,10,0,0,1,28,21Z"/>
            <path class="cls-1"
                  d="M9.66,16.79A4.58,4.58,0,0,0,12,13V3a1,1,0,0,0-2,0V13a2.56,2.56,0,0,1-1.24,2l-.42.21A10.27,10.27,0,0,1,7,15.76V3A1,1,0,0,0,5,3V15.76a10.27,10.27,0,0,1-1.34-.55L3.24,15A2.56,2.56,0,0,1,2,13V3A1,1,0,0,0,0,3V13a4.58,4.58,0,0,0,2.34,3.79l.42.21A11.9,11.9,0,0,0,5,17.85.8.8,0,0,0,5,18v9a62,62,0,0,1-1.36,8.79C2.84,40,2,44.27,2,47c0,4.51,2.37,7,4,7s4-2.49,4-7c0-3.15-1.12-9.17-2-14-.51-2.73-1-5.31-1-6V18a.8.8,0,0,0,0-.15A11.9,11.9,0,0,0,9.24,17ZM8,47c0,3.44-1.61,4.93-2,5s-2-1.56-2-5A71,71,0,0,1,5.61,36.17c.16-.84.32-1.67.47-2.47C6.91,38.17,8,44.1,8,47Z"/>
            <path class="cls-1"
                  d="M53.63.23A1,1,0,0,0,52.8,0C52.52.08,46,1.63,46,18c0,7.14,1.55,10.94,2.52,12.62a2.83,2.83,0,0,0-1.05.83A2.16,2.16,0,0,0,47,33.08V39a35.67,35.67,0,0,1-.54,5.57A28.35,28.35,0,0,0,46,49c0,3.69,2.58,5,5,5s3-2.62,3-4V1A1,1,0,0,0,53.63.23ZM52,50s-.06,2-1,2a2.69,2.69,0,0,1-3-3,27.88,27.88,0,0,1,.43-4.12A36.63,36.63,0,0,0,49,39V33c0-.14,0,0,0-.17a.32.32,0,0,1,.1-.19c.15-.15.78-.64,2.92-.64Zm0-20a12.79,12.79,0,0,0-1.45.08C49.94,29.2,48,25.81,48,18,48,8,50.46,4.17,52,2.76Z"/>
        </g>
    </g>
</svg>