<svg xmlns="http://www.w3.org/2000/svg" viewBox="0 0 60.1 40.74"><defs><style>.cls-1{fill:#fff;}</style></defs><title>Fichier 2</title><g id="Calque_2" fill="#fff" data-name="Calque 2"><g id="Capa_1" data-name="Capa 1"><path d="M53.4,13.4A6.7,6.7,0,1,0,53.4,0H6.7A6.58,6.58,0,0,0,0,6.7a6.64,6.64,0,0,0,6.7,6.7H12l-2,6.4H6.3a3,3,0,0,0,0,6H8.1L4.7,36.9a2.89,2.89,0,0,0,2,3.7,2.89,2.89,0,0,0,3.7-2l4-12.9H45.6l4,12.9a3,3,0,0,0,2.9,2.1,2.77,2.77,0,0,0,.9-.1,3,3,0,0,0,2-3.7L52,25.7h1.8a3,3,0,0,0,0-6H50.1l-1.9-6.3Zm-9.6,6.4H16.3l1.9-6.3H41.9Z"/></g></g></svg>