<svg height='300px' width='300px'  fill="#000000" xmlns="http://www.w3.org/2000/svg" viewBox="0 0 64 64" x="0px" y="0px">
  <g>
    <path d="M28,18.8,25.3,17H2v6H3a1,1,0,0,1,0,2H2v6H3a1,1,0,0,1,0,2H2v6H3a1,1,0,0,1,0,2H2v6H25.3L28,45.2,30.7,47H62V41H61a1,1,0,0,1,0-2h1V33H61a1,1,0,0,1,0-2h1V25H61a1,1,0,0,1,0-2h1V17H30.7ZM60,19v2.171a3,3,0,0,0,0,5.658v2.342a3,3,0,0,0,0,5.658v2.342a3,3,0,0,0,0,5.658V45H31.3L28,42.8,24.7,45H4V42.829a3,3,0,0,0,0-5.658V34.829a3,3,0,0,0,0-5.658V26.829a3,3,0,0,0,0-5.658V19H24.7L28,21.2,31.3,19Z"></path>
    <path d="M23.005,34H17.984a9.029,9.029,0,0,0-2.272-5.707c-2.5-2.5-6.586-2.3-6.762-2.292a1,1,0,0,0-.943.944C8,27.118,7.8,31.211,10.3,33.707a9.007,9.007,0,0,0,5.707,2.269V41a1,1,0,0,0,1.707.707l6-6A1,1,0,0,0,23.005,34ZM11.712,32.293a6.97,6.97,0,0,1-1.677-4.261A7.018,7.018,0,0,1,14.3,29.707a6.978,6.978,0,0,1,1.678,4.261A7.023,7.023,0,0,1,11.712,32.293Zm6.293,6.293V36h2.586Z"></path>
    <rect x="27" y="24" width="2" height="4"></rect>
    <rect x="27" y="30" width="2" height="4"></rect>
    <rect x="27" y="36" width="2" height="4"></rect>
    <path d="M21.005,24a3,3,0,1,0,3,3A3,3,0,0,0,21.005,24Zm0,4a1,1,0,1,1,1-1A1,1,0,0,1,21.005,28Z"></path>
    <rect x="14" y="23" width="2" height="2"></rect>
    <rect x="10" y="21" width="2" height="2"></rect>
    <rect x="32" y="22" width="24" height="2"></rect>
    <rect x="32" y="26" width="2" height="2"></rect>
    <rect x="36" y="26" width="4" height="2"></rect>
    <rect x="42" y="26" width="8" height="2"></rect>
    <polygon points="56 36 40 36 40 32 56 32 56 30 32 30 32 32 38 32 38 36 32 36 32 38 56 38 56 36"></polygon>
    <rect x="32" y="40" width="6" height="2"></rect>
    <rect x="40" y="40" width="2" height="2"></rect>
    <rect x="44" y="40" width="10" height="2"></rect>
  </g>
</svg>