<svg xmlns="http://www.w3.org/2000/svg" viewBox="0 0 23.35 24.56"><title>couverts</title><g id="Calque_2" data-name="Calque 2"><g id="Calque_1-2" data-name="Calque 1"><path d="M23.12,22.55,13.51,13h0L6.74,6.23.59.15C-.06-.52-.18,1.2.26,1.76l1.07,1.7,1.16-.68L1.8,4.2,2.33,5l.83-.48-.49,1,.65,1,.53-.31-.31.65.71,1.12.4-.24-.24.5,3.83,6h3.12l10,10a1.14,1.14,0,0,0,1.57-.19A1.16,1.16,0,0,0,23.12,22.55Z"/><path d="M22.09,6.32l-5.48,5.49a.68.68,0,0,1-.95,0l-3-3a.69.69,0,0,1,0-1l5.48-5.48-.75-.75L11.92,7.12a1.74,1.74,0,0,0,0,2.46l3,3a1.75,1.75,0,0,0,2.47,0l5.48-5.48Z"/><path d="M20.23,4.26a.61.61,0,0,1-.1.84l-4.95,5a.61.61,0,0,1-.85.09h0a.61.61,0,0,1,.1-.84l5-5a.6.6,0,0,1,.84-.09Z"/><path d="M11,14.84H8L.28,22.55a1.15,1.15,0,0,0,.19,1.58,1.15,1.15,0,0,0,1.58.19l9.23-9.23Z"/></g></g></svg>