<svg xmlns="http://www.w3.org/2000/svg" viewBox="0 0 24.58 23.37"><title>panier</title><g id="Calque_2" data-name="Calque 2"><g id="Calque_1-2" data-name="Calque 1"><path d="M22.89,10.47h-.77L14.25,1a.34.34,0,0,0,0-.1A.94.94,0,0,0,12.42.67a.93.93,0,0,0-.9-.67.94.94,0,0,0-.93.94V1L2.7,10.47h-1a1.69,1.69,0,0,0-.08,3.38l1.26,8.7a1.09,1.09,0,0,0,1.1.82H20.62a1.08,1.08,0,0,0,1.09-.82L23,13.85a1.69,1.69,0,0,0-.08-3.38ZM11.58,1.87a.92.92,0,0,0,.84-.67.94.94,0,0,0,.82.67l7.17,8.6H4.4ZM6,21a.61.61,0,0,1-.13.31s0,0,0,0l0,.06s0,0,0,0,0,0,0,0l-.06,0,0,0-.08,0,0,0-.14,0A.74.74,0,0,1,4.55,21L3.88,14.9v-.06a.43.43,0,0,1,0-.16.19.19,0,0,1,0-.08.19.19,0,0,1,0-.1h0a.73.73,0,0,1,0-.09s0,0,0,0a.22.22,0,0,1,0-.08v0l0,0h0l0,0,0,0,.05,0h0l0,0,.08,0h0l.14,0h.15l.09,0h0a.19.19,0,0,1,.08,0l.06,0,.07.05,0,0,.06.06,0,0,.06.08,0,0a.37.37,0,0,1,.05.11v0a.33.33,0,0,1,0,.15h0l.65,6,0,.14A.66.66,0,0,1,6,21Zm3.63,0h0a.27.27,0,0,1,0,.12h0a.49.49,0,0,1,0,.11s0,0,0,0,0,.06-.05.09l0,0s0,.05-.06.08l0,0-.07.05-.05,0-.06,0-.08,0-.06,0-.14,0A.75.75,0,0,1,8.16,21l-.27-6v-.26l0-.11v0l0-.1,0,0,0-.08,0,0,.06-.07h0l0,0,0,0h0l.06,0h0l0,0,.08,0h.05a.34.34,0,0,1,.14,0h.15l.06,0,.08,0,.07,0,0,0,.09.06,0,0,.09.09h0a.63.63,0,0,1,.16.38.07.07,0,0,1,0,.05l.27,6.16A.48.48,0,0,1,9.65,21ZM13,20.93a.75.75,0,1,1-1.49,0V14.76s0-.06,0-.09a.5.5,0,0,1,0-.12h0a.61.61,0,0,1,0-.12h0a.61.61,0,0,1,.07-.1h0l.07-.08,0,0,.08-.06.05,0,.07,0,.08,0,0,0,.15,0,.14,0,.06,0,.08,0,.07,0,0,0,.08.06,0,0,.08.09h0a.84.84,0,0,1,.15.38v6.25Zm3.62-6h0l-.27,6a.75.75,0,0,1-.78.71l-.14,0-.06,0-.07,0-.07,0-.05,0s0,0-.06-.05l0,0L15,21.38s0,0,0,0l-.06-.09v0s0-.07,0-.11v0l0-.11a.48.48,0,0,1,0-.12v-.23l.26-5.93s0,0,0-.06a.5.5,0,0,1,0-.13h0l.05-.12h0a.41.41,0,0,1,.07-.11h0a.34.34,0,0,1,.08-.09l0,0,.08-.06.05,0,.08,0,.08,0,0,0h.15a.32.32,0,0,1,.14,0h.05l.08,0,0,0h0l.06,0h0a.1.1,0,0,1,.05,0l0,0h0l.06.06,0,0a.22.22,0,0,0,.05.08,0,0,0,0,0,0,0l0,.1v0l0,.12s0,.08,0,.11Zm4,0L20,21a.75.75,0,0,1-.83.66l-.13,0-.05,0-.08,0-.05,0,0,0-.06,0,0,0-.05-.07a0,0,0,0,1,0,0,.7.7,0,0,1-.13-.32,1.27,1.27,0,0,1,0-.2l.67-6.13h0l0-.15v0a.37.37,0,0,1,0-.11l0,0a.35.35,0,0,1,.05-.08l0,0,.07-.06.05,0,.06-.05.06,0s0,0,.08,0h.05l.09,0H20a.58.58,0,0,1,.14,0h0l.08,0,0,0h0l0,0,0,0,0,0h0l.05,0a0,0,0,0,0,0,0,.56.56,0,0,1,.05.08v0a.39.39,0,0,1,0,.09h0l0,.1s0,0,0,.07a.49.49,0,0,1,0,.17Z"/></g></g></svg>