<svg xmlns="http://www.w3.org/2000/svg" viewBox="0 0 16.8 21.93"><title>ticket</title><g id="Calque_2" data-name="Calque 2"><g id="Calque_1-2" data-name="Calque 1"><path d="M16.1,3.17,13.64.71A2.79,2.79,0,0,0,11.93,0H1A1,1,0,0,0,0,1V20.93a1,1,0,0,0,1,1H15.8a1,1,0,0,0,1-1v-16A2.81,2.81,0,0,0,16.1,3.17ZM1.84,7.23h9a.51.51,0,0,1,.5.51.5.5,0,0,1-.5.49h-9a.49.49,0,0,1-.5-.49A.5.5,0,0,1,1.84,7.23ZM8.05,18.59H1.84a.5.5,0,0,1-.5-.5.5.5,0,0,1,.5-.5H8.05a.5.5,0,0,1,.51.5A.51.51,0,0,1,8.05,18.59Zm6.4-3.67H1.84a.5.5,0,0,1-.5-.5.5.5,0,0,1,.5-.5H14.45a.5.5,0,0,1,.5.5A.5.5,0,0,1,14.45,14.92Zm0-3.49H1.84a.5.5,0,1,1,0-1H14.45a.5.5,0,0,1,0,1Z"/></g></g></svg>