<svg xmlns="http://www.w3.org/2000/svg" viewBox="0 0 23.87 24.56"><title>total</title><g id="Calque_2" data-name="Calque 2"><g id="Calque_1-2" data-name="Calque 1"><polygon points="0.82 9.15 0 11.29 19.75 11.29 20.57 9.15 0.82 9.15"/><polygon points="1.87 13.41 1.04 15.55 18.64 15.55 19.47 13.41 1.87 13.41"/><path d="M6,12.28c0-.17,0-.33,0-.5H3.58c0,.17,0,.33,0,.5s0,.43,0,.64H6C6,12.71,6,12.5,6,12.28Z"/><path d="M4.09,8.66H6.7A9.82,9.82,0,0,1,23.14,5.73L23.87,3A12.26,12.26,0,0,0,4.09,8.66Z"/><path d="M6.76,16H4.14a12.28,12.28,0,0,0,18.51,6.45V19.34A9.81,9.81,0,0,1,6.76,16Z"/></g></g></svg>