<svg xmlns="http://www.w3.org/2000/svg" viewBox="0 0 26.21 24.56"><title>user</title><g id="Calque_2" data-name="Calque 2"><g id="Calque_1-2" data-name="Calque 1"><path d="M26,24.42a.33.33,0,0,1-.17.14H.51L.4,24.5A5.58,5.58,0,0,1,.17,21a8.09,8.09,0,0,1,.46-1.39c1.18-1.8,3.79-2.3,6.08-3a6.35,6.35,0,0,0,3-1.46,2.65,2.65,0,0,0,.33-1c-.61-1.54-1.63-2.21-2-3.27,0-.24,0-.46-.08-.69-.21-.52-.92-.78-1.15-1.31S6.45,7.38,6.71,7c.23-.15.34,0,.47-.31a4.06,4.06,0,0,1,0-2.39A4,4,0,0,1,8.4,1.42s0,0,0,0A3.29,3.29,0,0,1,9,1a6.78,6.78,0,0,1,3.67-1c2.48,0,4.56,1.13,5,2.6A13.68,13.68,0,0,1,18.12,7c.54,0,.52.31.47,1-.23.36-.16,1-.39,1.31s-.74.48-.92.77c0,.2-.05.41-.08.61a11.85,11.85,0,0,1-.46,1.47c-.24.58-.91,1.37-1.08,1.85-.23.69.91,1.62,1.21,1.84.87.64,2.17.64,3.31,1,2.64.85,5,1.4,5.85,4.08A7.29,7.29,0,0,1,26,24.42Z"/></g></g></svg>