<?xml version="1.0" encoding="UTF-8"?>
<svg xmlns="http://www.w3.org/2000/svg" viewBox="0 0 200 180">
   <title>ubereats</title>
   <g id="Calque_2" data-name="Calque 2">
      <g id="Calque_1-2" data-name="Calque 1">
		  <path d="m175.06,27.56c-5.47,0 -9.35,4.28 -9.35,10.85l0,24.1l-8.35,0l0,-42.42l8.25,0l0,5.18a11.19,11.19 0 0 1 9.94,-5.48l3,0l0,7.77l-3.49,0zm-23.47,13.74c0,-12.65 -9,-22.11 -21.18,-22.11a21.83,21.83 0 0 0 -21.68,22.11c0,12.64 9.75,22.2 22.47,22.2a22.17,22.17 0 0 0 18.3,-9.06l-6.06,-4.44a14.78,14.78 0 0 1 -12.24,6.17a14.22,14.22 0 0 1 -14,-12.14l34.41,0l-0.02,-2.73zm-34.21,-3.89c1.49,-6.47 6.66,-10.85 12.93,-10.85s11.43,4.38 12.83,10.85l-25.76,0zm-35.1,-18.22a21.12,21.12 0 0 0 -15,6.27l0,-21.21l-8.35,0l0,58.26l8.25,0l0,-5.38a21.45,21.45 0 0 0 15.12,6.37a22.16,22.16 0 1 0 0,-44.31l-0.02,0zm-0.6,36.85a14.69,14.69 0 1 1 14.62,-14.64a14.58,14.58 0 0 1 -14.62,14.6l0,0.04zm-53.5,-0.4c8.06,0 14.32,-6.18 14.32,-15.44l0,-35.95l8.65,0l0,58.26l-8.55,0l0,-5.51a21.24,21.24 0 0 1 -15.41,6.47c-12.43,0 -22,-9.06 -22,-22.8l0,-36.42l8.81,0l0,36c0,9.31 6,15.39 14.18,15.39z"/>
          <path d="m6.32,67.25l40.87,0l0,10l-29.83,0l0,14.2l29,0l0,9.66l-29,0l0,14.44l29.83,0l0,10l-40.87,0l0,-58.3zm153.74,59.35c12.53,0 19.59,-6 19.59,-14.24c0,-5.87 -4.18,-10.25 -12.93,-12.15l-9.25,-1.89c-5.37,-1 -7.06,-2 -7.06,-4c0,-2.59 2.59,-4.18 7.36,-4.18c5.17,0 9,1.39 10,6.17l10.84,0c-0.59,-9 -7.06,-14.94 -20.18,-14.94c-11.34,0 -19.3,4.68 -19.3,13.75c0,6.27 4.38,10.35 13.83,12.34l10.34,2.39c4.08,0.8 5.17,1.9 5.17,3.59c0,2.69 -3.08,4.38 -8.06,4.38c-6.26,0 -9.84,-1.39 -11.23,-6.17l-10.9,0c1.59,8.98 8.25,14.95 21.78,14.95zm-24.93,-1.09l-11.73,0c-7.36,0 -11.44,-4.58 -11.44,-10.36l0,-22.9l-8.25,0l0,-9.76l8.29,0l0,-12.25l10.9,0l0,12.25l12.23,0l0,9.76l-12.23,0l0,20.11c0,2.29 1.59,3.39 4.08,3.39l8.15,0l0,9.76zm-47,-43l0,3.88a21.16,21.16 0 0 0 -13.73,-5a22.61,22.61 0 1 0 0,45.21a21.1,21.1 0 0 0 13.73,-5l0,3.89l10.87,0l0,-43l-10.87,0.02zm-12.83,34.65a13.15,13.15 0 1 1 13,-13.14a13,13 0 0 1 -13.02,13.12l0.02,0.02z"/>
      </g>
   </g>
</svg>