<svg xmlns="http://www.w3.org/2000/svg" viewBox="0 0 17.9 22.32"><title>web</title><g id="Calque_2" data-name="Calque 2"><g id="Calque_1-2" data-name="Calque 1"><path d="M9,22.32a10.84,10.84,0,0,1-4.07-.79C1.48,20.05,0,15,0,12.58V5.63A5.73,5.73,0,0,1,5.58,0h6.7A5.74,5.74,0,0,1,17.9,5.64v6.93c0,2.4-1.47,7.48-4.86,9a10.84,10.84,0,0,1-4.09.8ZM12.23,2H5.63A3.76,3.76,0,0,0,2,5.61v7c0,2.25,1.46,6.16,3.65,7.11a8.91,8.91,0,0,0,6.62,0c2.17-.94,3.61-4.84,3.63-7.11V5.63A3.77,3.77,0,0,0,12.23,2Z"/><path d="M8.81,7.2a1,1,0,0,1-1-1V1a1,1,0,0,1,2,0V6.2a1,1,0,0,1-1,1Z"/></g></g></svg>